<?xml version="1.0" standalone="no"?>
<!DOCTYPE svg PUBLIC "-//W3C//DTD SVG 20010904//EN"
 "http://www.w3.org/TR/2001/REC-SVG-20010904/DTD/svg10.dtd">
<svg version="1.0" xmlns="http://www.w3.org/2000/svg"
 width="700.000000pt" height="700.000000pt" viewBox="0 0 700.000000 700.000000"
 preserveAspectRatio="xMidYMid meet">
<metadata>
Created by potrace 1.14, written by Peter Selinger 2001-2017
</metadata>
<g transform="translate(0.000000,700.000000) scale(0.100000,-0.100000)"
fill="#000000" stroke="none">
<path d="M3213 6989 c-138 -12 -340 -43 -481 -75 -512 -113 -998 -347 -1417
-680 -141 -112 -436 -407 -549 -549 -352 -442 -587 -947 -695 -1492 -55 -273
-65 -382 -65 -693 0 -316 9 -415 69 -715 86 -431 260 -848 513 -1227 260 -391
584 -714 977 -974 461 -305 936 -482 1510 -560 184 -26 665 -26 850 -1 576 79
1055 258 1522 569 559 372 1013 917 1269 1523 181 429 267 823 280 1290 26
861 -258 1677 -812 2340 -374 447 -865 801 -1399 1010 -297 117 -522 174 -865
220 -138 19 -561 28 -707 14z m497 -59 c266 -19 511 -59 725 -121 916 -262
1676 -882 2115 -1723 365 -698 477 -1516 314 -2301 -91 -441 -293 -899 -562
-1276 -263 -368 -586 -674 -973 -921 -91 -58 -394 -218 -464 -245 -16 -6 -73
-28 -125 -48 -234 -91 -417 -142 -650 -179 -299 -48 -530 -62 -775 -47 -386
25 -700 90 -1018 212 -215 82 -283 114 -439 202 -65 37 -121 67 -124 67 -17 0
-324 219 -428 306 -620 516 -1047 1242 -1185 2011 -58 321 -72 712 -37 1018
119 1050 704 1974 1607 2540 145 91 438 235 599 294 468 172 948 243 1420 211z"/>
<path d="M3278 6800 c-653 -48 -1244 -266 -1756 -647 -639 -476 -1086 -1165
-1256 -1933 -59 -270 -70 -381 -70 -715 -1 -330 5 -395 60 -679 138 -708 539
-1378 1119 -1867 426 -359 981 -620 1510 -709 315 -53 560 -68 810 -51 138 10
209 19 395 46 324 49 762 214 1099 414 564 335 1047 875 1316 1470 139 309
221 602 272 971 24 178 24 624 -1 805 -41 301 -95 514 -197 784 -324 855
-1033 1566 -1889 1894 -276 106 -527 168 -820 201 -164 19 -445 27 -592 16z
m644 -54 c292 -41 519 -100 777 -202 848 -337 1512 -1004 1844 -1854 299 -764
300 -1617 3 -2373 -231 -589 -592 -1063 -1101 -1444 -388 -291 -825 -485
-1310 -582 -249 -50 -317 -56 -635 -56 -320 0 -384 5 -625 52 -71 14 -141 27
-155 29 -140 25 -504 161 -715 267 -122 61 -344 202 -490 312 -280 209 -556
501 -741 783 -24 37 -48 72 -54 79 -5 7 -10 15 -10 17 0 3 -19 36 -41 73 -55
89 -144 259 -167 320 -11 26 -40 100 -66 163 -86 212 -151 471 -193 765 -25
181 -25 636 0 810 64 437 166 767 342 1102 160 305 327 533 569 781 397 406
866 689 1417 856 395 119 931 160 1351 102z"/>
<path d="M3150 6714 c-63 -8 -121 -16 -128 -19 -22 -8 -10 -60 14 -63 19 -3
22 -13 33 -103 13 -120 13 -129 2 -129 -5 0 -14 20 -20 44 -13 51 -22 60 -52
51 -20 -7 -21 -12 -15 -60 l6 -53 -43 -8 c-23 -5 -46 -8 -51 -9 -8 0 -55 172
-56 208 0 9 6 17 13 17 27 0 50 26 43 48 -9 27 -36 28 -131 4 -67 -17 -70 -20
-70 -48 0 -26 3 -29 32 -30 18 0 35 -3 38 -6 6 -6 40 -143 47 -186 2 -16 -4
-26 -22 -35 -34 -17 -35 -61 -2 -65 13 -2 82 10 155 27 73 16 184 35 247 41
63 6 128 13 144 17 l28 5 -6 60 c-10 81 -14 90 -45 86 -23 -3 -26 -8 -29 -45
-3 -39 -6 -43 -30 -43 -15 0 -44 -3 -64 -6 l-38 -7 0 40 c0 51 8 58 37 31 19
-18 27 -20 41 -11 24 15 21 122 -4 140 -20 15 -54 0 -54 -23 0 -31 -35 -10
-38 22 -3 29 0 32 35 37 70 12 83 9 83 -17 0 -44 51 -61 66 -21 4 8 3 40 -1
70 -7 63 9 60 -165 39z m148 -56 c2 -38 0 -48 -12 -48 -11 0 -16 10 -16 30 0
27 -3 30 -34 30 -18 0 -54 -3 -80 -6 -45 -7 -46 -7 -46 -45 0 -55 8 -69 41
-69 23 0 32 6 40 28 10 26 11 26 25 8 16 -23 19 -92 3 -101 -6 -4 -13 3 -16
15 -5 17 -12 21 -42 18 l-36 -3 4 -55 c1 -30 5 -59 8 -63 3 -5 30 -5 61 -2
101 11 101 10 104 58 2 23 8 41 13 40 11 -2 31 -100 22 -109 -13 -13 -262 -33
-272 -22 -7 7 -7 12 0 14 35 14 35 18 23 147 -11 109 -15 127 -30 127 -19 0
-34 18 -23 28 8 9 180 30 225 29 34 -2 35 -3 38 -49z m-420 -26 c2 -7 -9 -15
-27 -18 -17 -4 -31 -13 -31 -21 0 -25 50 -237 58 -245 4 -4 35 0 70 9 l63 16
-7 53 c-4 38 -3 54 5 54 16 0 31 -44 31 -94 l0 -43 -117 -26 c-65 -15 -124
-27 -130 -27 -26 0 -12 29 17 35 17 4 30 10 30 13 0 8 -36 158 -51 215 -10 38
-11 39 -46 32 -30 -5 -34 -4 -31 11 2 13 23 23 68 35 73 19 91 20 98 1z"/>
<path d="M3676 6715 c-21 -21 -20 -30 5 -54 21 -19 21 -22 8 -127 -10 -87 -15
-108 -30 -111 -34 -9 -34 -58 -1 -67 51 -14 114 -16 128 -5 23 19 17 48 -12
59 -25 10 -26 12 -19 73 7 60 11 75 18 66 2 -2 21 -44 41 -94 51 -122 61 -135
95 -135 l29 0 18 142 c17 126 22 144 44 165 20 19 23 26 14 41 -14 22 -118 40
-143 25 -23 -15 -20 -46 7 -58 24 -11 27 -37 13 -110 l-8 -40 -30 65 c-16 36
-38 87 -48 113 -21 55 -18 53 -71 61 -32 6 -45 3 -58 -9z m76 -14 c18 -7 36
-40 78 -145 30 -75 58 -136 61 -136 6 0 29 160 29 203 0 19 -6 26 -22 29 -41
6 -14 23 34 23 54 -1 88 -22 50 -31 -12 -4 -22 -7 -22 -8 0 -18 -41 -290 -44
-294 -15 -14 -44 28 -82 119 -24 57 -52 120 -61 139 l-17 35 -12 -80 c-20
-126 -18 -153 9 -157 12 -2 22 -10 22 -18 0 -12 -10 -14 -45 -12 -57 4 -80 11
-80 24 0 5 9 12 19 15 22 6 25 16 42 157 13 97 12 98 -10 115 -35 27 -1 42 51
22z"/>
<path d="M4063 6663 c-7 -2 -13 -15 -13 -28 0 -26 14 -40 53 -49 31 -7 31 6
-7 -141 l-21 -80 -50 0 c-43 0 -50 -3 -53 -21 -4 -30 12 -40 122 -67 101 -26
120 -26 130 -1 9 24 -4 43 -40 54 -38 13 -40 21 -20 93 8 29 20 71 26 94 l10
41 48 -1 c44 -2 47 0 50 25 3 25 -1 28 -50 42 -29 8 -78 22 -110 30 -31 9 -58
16 -60 15 -1 0 -9 -3 -15 -6z m81 -29 c33 -8 78 -20 99 -25 22 -6 37 -16 37
-25 0 -12 -9 -13 -48 -8 l-48 6 -29 -113 c-15 -63 -30 -119 -32 -126 -3 -7 13
-17 36 -24 23 -7 41 -18 41 -26 0 -17 -9 -17 -115 10 -61 16 -90 28 -90 38 0
15 12 16 61 5 l31 -7 32 127 c17 70 30 128 29 129 -2 2 -19 7 -38 12 -20 5
-36 17 -38 26 -4 21 -4 21 72 1z"/>
<path d="M2480 6547 c-75 -28 -85 -35 -85 -57 0 -18 6 -26 23 -28 26 -4 32
-14 73 -127 30 -82 30 -87 14 -105 -19 -21 -14 -47 10 -56 9 -4 50 7 93 23 68
25 77 32 80 56 4 34 -16 43 -60 28 -34 -12 -42 -8 -52 24 -4 16 3 24 44 42 80
35 110 106 74 174 -16 32 -66 59 -106 59 -13 -1 -61 -15 -108 -33z m163 2 c35
-16 51 -51 44 -95 -8 -45 -39 -80 -86 -95 -51 -16 -53 -20 -37 -65 14 -40 17
-41 74 -29 25 6 32 4 32 -7 0 -17 -134 -73 -150 -63 -15 9 -12 21 9 31 18 9
16 16 -27 132 -40 108 -48 122 -69 122 -49 0 -22 29 50 53 80 28 124 32 160
16z"/>
<path d="M2537 6515 c-21 -7 -40 -15 -43 -17 -4 -5 35 -128 41 -128 2 0 24 9
49 19 77 34 99 103 41 129 -32 15 -40 15 -88 -3z m84 -15 c40 -22 19 -71 -43
-98 -30 -12 -35 -8 -58 53 -9 24 -7 27 23 40 39 17 53 18 78 5z"/>
<path d="M4385 6538 c-62 -34 -115 -127 -115 -201 0 -38 30 -105 56 -129 35
-31 94 -50 134 -43 32 5 38 3 43 -14 7 -29 124 -86 143 -70 18 15 18 38 -2 60
-13 14 -13 21 -3 41 42 80 82 30 72 -89 l-5 -68 34 -20 c69 -40 251 -171 296
-214 26 -24 80 -73 120 -109 l74 -66 55 57 c55 58 62 81 31 101 -14 8 -24 4
-52 -23 l-35 -34 -41 33 -40 32 39 46 c22 26 57 64 79 86 38 37 41 38 63 23
27 -19 59 -7 59 23 0 26 -119 131 -145 128 -26 -4 -32 -44 -10 -68 16 -17 13
-23 -56 -97 -41 -43 -75 -80 -76 -82 -1 -2 -14 4 -28 13 l-26 17 22 35 22 36
-21 21 -22 21 -28 -27 c-15 -15 -31 -27 -35 -27 -9 0 -97 63 -97 69 0 3 11 19
23 35 25 31 52 28 42 -4 -5 -17 17 -50 35 -50 19 0 81 89 78 112 -3 20 -9 23
-43 23 -44 0 -48 8 -23 44 l17 24 41 -28 c51 -36 53 -38 38 -70 -9 -21 -9 -29
4 -42 9 -9 23 -13 32 -10 15 6 76 83 76 97 0 11 -227 170 -243 170 -8 0 -17 7
-20 15 -7 18 -79 55 -107 55 -12 0 -24 -9 -29 -24 -6 -15 -20 -25 -41 -30 -55
-10 -62 -9 -50 14 8 15 17 18 38 14 35 -7 62 19 45 44 -16 26 -95 70 -125 71
-33 1 -47 -32 -25 -57 14 -15 10 -26 -34 -107 -59 -107 -69 -118 -69 -83 0 37
-24 54 -56 39 -35 -15 -85 -14 -111 4 -33 23 -47 77 -32 123 17 54 36 78 69
92 56 23 109 -6 119 -66 5 -33 11 -39 32 -42 23 -3 29 3 48 48 24 56 17 90
-19 90 -10 0 -36 11 -56 25 -40 27 -121 34 -159 13z m148 -25 c15 -8 31 -21
34 -29 3 -9 12 -12 24 -9 24 8 26 -23 4 -65 -19 -38 -35 -38 -35 -2 -1 47 -51
92 -105 92 -47 0 -82 -27 -110 -85 -33 -66 -29 -109 14 -158 24 -27 36 -31 72
-31 24 1 56 5 72 9 36 10 38 -17 2 -33 -100 -46 -213 29 -215 141 0 40 40 136
65 157 46 38 118 44 178 13z m201 -96 c51 -29 61 -52 19 -44 -28 6 -32 2 -58
-44 -15 -28 -25 -52 -23 -53 1 -1 40 6 86 17 73 16 82 21 77 38 -8 26 20 25
63 -1 38 -24 41 -40 7 -40 -22 0 -154 -29 -163 -35 -1 -1 5 -19 14 -40 11 -28
14 -53 9 -92 -4 -36 -3 -59 5 -68 10 -12 9 -16 -4 -21 -26 -10 -31 3 -31 85 0
96 -19 134 -62 122 -18 -5 -36 -22 -50 -47 -28 -48 -28 -51 -3 -59 20 -6 28
-35 10 -35 -25 0 -110 52 -110 66 0 12 6 15 24 10 29 -7 30 -6 97 122 49 93
52 104 37 113 -10 5 -18 14 -18 19 0 17 33 11 74 -13z m342 -207 c54 -39 101
-75 102 -81 6 -17 -49 -82 -60 -71 -6 6 -4 19 8 36 9 16 13 30 8 35 -18 15
-114 81 -119 81 -2 0 -18 -20 -35 -44 l-30 -45 29 -20 c25 -18 30 -19 41 -6
13 16 30 11 30 -8 0 -22 -56 -81 -69 -73 -9 6 -9 11 0 22 9 11 6 18 -12 34
-37 30 -41 28 -93 -51 l-17 -27 67 -47 67 -48 23 26 c23 27 44 35 44 17 0 -18
-44 -80 -57 -80 -19 0 -217 144 -212 155 2 6 14 9 26 7 17 -2 36 18 93 100 61
85 70 105 61 120 -13 21 -14 38 -3 38 5 0 53 -32 108 -70z m-129 31 c9 -13 1
-30 -44 -96 -76 -109 -74 -108 -99 -90 -18 12 -20 22 -17 62 3 27 1 65 -5 86
-11 40 -12 39 83 60 30 6 68 -4 82 -22z m371 -225 c65 -62 65 -91 1 -44 -14 9
-27 0 -81 -58 -36 -38 -77 -83 -92 -100 l-26 -32 56 -48 56 -47 35 36 c19 21
39 35 44 32 13 -8 -2 -33 -45 -74 l-35 -34 -38 33 c-86 74 -163 153 -157 161
6 10 19 5 46 -19 18 -15 25 -9 163 146 l38 43 -21 15 c-23 16 -30 44 -11 44 6
0 36 -24 67 -54z"/>
<path d="M2193 6419 c-76 -41 -93 -55 -93 -74 0 -30 24 -38 61 -20 16 9 34 13
40 10 10 -7 99 -179 99 -192 0 -12 -76 -53 -98 -53 -11 0 -40 9 -65 20 -44 20
-45 21 -40 60 5 35 2 43 -30 75 -47 47 -83 47 -165 -2 -34 -20 -77 -49 -95
-64 -27 -23 -30 -30 -21 -46 7 -11 22 -17 38 -16 23 2 35 -11 87 -89 56 -83
60 -92 48 -114 -11 -21 -10 -27 4 -42 16 -15 19 -15 51 2 19 10 50 31 68 46
28 24 31 31 22 47 -8 13 -22 17 -46 15 -28 -2 -37 2 -48 24 -13 23 -13 27 5
40 27 20 51 17 127 -15 61 -26 69 -27 88 -14 12 8 71 39 131 69 96 47 109 56
109 79 0 34 -24 42 -66 22 l-33 -16 -25 42 c-13 23 -37 68 -53 101 -27 57 -27
59 -9 70 43 25 57 45 46 66 -16 29 -35 25 -137 -31z m117 16 c0 -9 -16 -23
-35 -32 -25 -12 -34 -22 -30 -32 14 -37 117 -221 123 -221 4 1 18 7 32 15 31
18 50 19 50 3 0 -13 -155 -98 -177 -98 -29 0 -20 21 17 40 l40 20 -60 120 -60
120 -40 -20 c-36 -18 -41 -19 -46 -5 -8 20 -14 15 81 63 88 45 105 49 105 27z
m-254 -201 c26 -25 29 -61 10 -106 -6 -13 -2 -18 21 -23 15 -4 43 -13 61 -21
18 -8 46 -14 63 -14 32 0 35 -16 7 -34 -12 -7 -32 -2 -76 17 -81 37 -113 35
-171 -9 -3 -3 13 -30 48 -83 7 -10 13 -11 31 -1 14 8 26 8 32 2 10 -10 -31
-46 -79 -71 -27 -14 -39 1 -18 23 14 14 10 24 -46 108 -81 122 -89 131 -105
117 -7 -6 -18 -8 -24 -4 -16 10 4 31 80 81 79 53 126 59 166 18z"/>
<path d="M1922 6199 l-43 -31 18 -27 c10 -15 26 -38 35 -50 l17 -23 30 21 c39
28 71 69 71 91 0 24 -32 50 -61 50 -14 0 -44 -14 -67 -31z m92 5 c27 -10 18
-45 -21 -82 l-37 -34 -23 28 c-30 38 -29 48 10 73 34 22 46 25 71 15z"/>
<path d="M1640 6044 c-60 -53 -110 -100 -110 -104 0 -5 22 -32 48 -61 35 -38
53 -51 65 -46 28 11 30 34 7 67 -23 32 -20 64 4 58 8 -2 46 -39 84 -83 70 -80
70 -80 51 -101 -10 -11 -19 -27 -19 -35 0 -16 19 -39 32 -39 4 0 39 27 78 61
53 46 70 66 68 82 -4 28 -43 35 -67 13 -17 -15 -23 -11 -95 70 -59 68 -74 90
-65 100 17 20 33 17 57 -11 26 -30 58 -32 67 -5 5 16 -5 35 -40 75 -26 30 -48
55 -50 55 -2 0 -54 -43 -115 -96z m154 26 c20 -22 36 -45 36 -50 0 -20 -24 -9
-50 22 l-26 31 -32 -23 c-18 -13 -32 -28 -32 -33 0 -15 162 -197 175 -197 7 0
18 7 25 15 14 17 40 20 40 6 0 -14 -112 -111 -127 -111 -19 0 -16 14 7 35 11
10 20 23 20 28 0 8 -47 65 -156 186 -10 11 -17 10 -43 -8 -38 -27 -38 -37 -5
-72 15 -16 23 -32 19 -39 -8 -13 -85 56 -85 76 0 12 178 174 191 174 4 0 23
-18 43 -40z"/>
<path d="M2306 5759 c3 -5 12 -9 21 -9 19 0 9 13 -12 16 -8 1 -13 -2 -9 -7z"/>
<path d="M2127 5753 c-4 -3 -7 -16 -6 -27 0 -14 2 -16 6 -6 3 8 12 21 21 28
14 10 14 12 1 12 -9 0 -19 -3 -22 -7z"/>
<path d="M2450 5700 c13 -18 26 -27 35 -23 33 12 3 53 -40 53 -14 0 -13 -4 5
-30z"/>
<path d="M2552 5675 c15 -14 36 -25 46 -25 11 0 25 -6 31 -14 12 -15 159 -61
168 -53 3 3 -10 9 -29 12 -19 4 -48 18 -63 33 -16 14 -40 27 -55 28 -14 1 -46
11 -70 23 -56 27 -61 26 -28 -4z"/>
<path d="M2076 5642 c-2 -4 -1 -14 5 -22 7 -12 9 -10 9 8 0 23 -5 28 -14 14z"/>
<path d="M4015 5595 c-28 -13 -25 -13 52 -11 45 1 85 5 89 9 4 4 -4 7 -17 7
-13 0 -40 2 -59 5 -19 2 -48 -2 -65 -10z"/>
<path d="M4598 5593 c7 -3 16 -2 19 1 4 3 -2 6 -13 5 -11 0 -14 -3 -6 -6z"/>
<path d="M4738 5593 c6 -2 18 -2 25 0 6 3 1 5 -13 5 -14 0 -19 -2 -12 -5z"/>
<path d="M4875 5580 c-18 -20 -18 -20 16 -14 59 10 66 14 49 24 -24 15 -45 12
-65 -10z"/>
<path d="M4322 5579 c3 -8 18 -15 34 -17 33 -4 24 11 -15 23 -17 5 -22 4 -19
-6z"/>
<path d="M4548 5583 c7 -3 16 -2 19 1 4 3 -2 6 -13 5 -11 0 -14 -3 -6 -6z"/>
<path d="M4656 5581 c-4 -5 3 -7 14 -4 23 6 26 13 6 13 -8 0 -17 -4 -20 -9z"/>
<path d="M5035 5558 c10 -26 19 -33 42 -33 22 0 27 4 25 20 l-2 20 11 -20 c7
-11 13 -21 14 -23 4 -5 85 30 85 37 0 13 -50 31 -85 31 -18 0 -40 -7 -49 -15
-8 -8 -17 -15 -20 -15 -3 0 -6 7 -6 15 0 8 -7 15 -15 15 -12 0 -12 -4 0 -32z"/>
<path d="M4980 5570 c0 -5 7 -10 15 -10 8 0 15 5 15 10 0 6 -7 10 -15 10 -8 0
-15 -4 -15 -10z"/>
<path d="M3708 5533 c7 -3 16 -2 19 1 4 3 -2 6 -13 5 -11 0 -14 -3 -6 -6z"/>
<path d="M3635 5510 c-3 -5 1 -10 9 -10 9 0 16 5 16 10 0 6 -4 10 -9 10 -6 0
-13 -4 -16 -10z"/>
<path d="M5233 5512 c-10 -7 -10 -12 0 -27 16 -21 37 -12 37 16 0 20 -16 24
-37 11z"/>
<path d="M3575 5500 c-3 -5 -16 -10 -27 -10 -12 0 -19 -3 -15 -6 9 -9 77 5 77
16 0 13 -27 13 -35 0z"/>
<path d="M3010 5493 c0 -5 42 -20 80 -28 32 -6 34 -6 15 8 -17 12 -95 29 -95
20z"/>
<path d="M3367 5489 c-9 -5 -21 -8 -26 -5 -5 3 -14 0 -20 -8 -6 -7 -22 -11
-35 -9 -13 3 -27 0 -30 -6 -4 -6 -16 -11 -27 -11 -10 0 -19 -5 -19 -11 0 -7 8
-9 23 -4 52 16 67 17 67 5 0 -9 6 -8 19 4 11 10 38 20 60 23 33 5 39 8 30 19
-13 16 -18 17 -42 3z"/>
<path d="M3446 5474 c-9 -24 0 -29 31 -18 32 11 32 28 0 32 -16 2 -27 -3 -31
-14z"/>
<path d="M2306 5445 c9 -14 20 -25 25 -25 12 0 -12 38 -28 45 -9 3 -8 -4 3
-20z"/>
<path d="M2590 5450 c14 -11 42 -25 62 -30 20 -6 60 -29 88 -51 28 -22 55 -37
60 -34 6 3 20 -11 32 -31 12 -21 24 -32 26 -24 3 7 -2 16 -9 21 -11 6 -11 14
-2 38 10 28 10 30 -7 21 -23 -12 -77 29 -82 62 -4 26 -40 38 -133 45 l-60 4
25 -21z"/>
<path d="M5098 5463 c7 -3 16 -2 19 1 4 3 -2 6 -13 5 -11 0 -14 -3 -6 -6z"/>
<path d="M3170 5449 c0 -5 5 -7 10 -4 6 3 10 8 10 11 0 2 -4 4 -10 4 -5 0 -10
-5 -10 -11z"/>
<path d="M2578 5413 c7 -3 16 -2 19 1 4 3 -2 6 -13 5 -11 0 -14 -3 -6 -6z"/>
<path d="M2470 5385 c0 -20 59 -135 70 -135 5 0 15 -3 24 -6 11 -4 19 2 26 21
8 22 7 30 -6 40 -11 8 -15 19 -10 30 6 17 7 17 19 1 11 -14 15 -15 31 -3 11 8
16 19 12 25 -9 15 -43 16 -51 2 -13 -20 -64 -11 -81 15 -18 28 -34 33 -34 10z"/>
<path d="M2680 5371 c0 -5 5 -13 10 -16 6 -3 10 -2 10 4 0 5 -4 13 -10 16 -5
3 -10 2 -10 -4z"/>
<path d="M2922 5338 c-14 -14 -16 -28 -3 -28 5 0 11 9 14 20 6 23 5 24 -11 8z"/>
<path d="M2640 5300 c0 -5 7 -10 16 -10 8 0 12 5 9 10 -3 6 -10 10 -16 10 -5
0 -9 -4 -9 -10z"/>
<path d="M2529 5146 c13 -14 20 -29 16 -35 -3 -6 1 -11 9 -11 23 0 19 23 -7
48 -32 30 -46 28 -18 -2z"/>
<path d="M2450 5110 c0 -5 4 -10 9 -10 6 0 13 5 16 10 3 6 -1 10 -9 10 -9 0
-16 -4 -16 -10z"/>
<path d="M2015 4990 c-3 -5 1 -10 9 -10 9 0 16 5 16 10 0 6 -4 10 -9 10 -6 0
-13 -4 -16 -10z"/>
<path d="M1909 4903 c-13 -16 -12 -17 4 -4 9 7 17 15 17 17 0 8 -8 3 -21 -13z"/>
<path d="M3550 4884 c0 -7 74 -74 78 -70 7 8 -22 56 -35 56 -7 0 -13 5 -13 10
0 6 -7 10 -15 10 -8 0 -15 -2 -15 -6z"/>
<path d="M3300 4861 c0 -5 7 -12 16 -15 11 -4 14 -13 10 -30 -4 -15 0 -28 10
-36 23 -20 33 1 18 37 -13 31 -54 64 -54 44z"/>
<path d="M3750 4860 c0 -5 5 -10 10 -10 6 0 10 5 10 10 0 6 -4 10 -10 10 -5 0
-10 -4 -10 -10z"/>
<path d="M3650 4850 c0 -5 7 -7 15 -4 8 4 15 8 15 10 0 2 -7 4 -15 4 -8 0 -15
-4 -15 -10z"/>
<path d="M3656 4822 c-4 -3 -6 -15 -6 -27 0 -17 10 -25 40 -35 36 -12 54 -30
30 -30 -15 0 -12 -21 7 -42 15 -17 15 -18 -5 -18 -11 0 -24 5 -27 10 -8 13
-25 13 -25 0 0 -6 19 -20 43 -30 l42 -20 -55 7 c-30 3 -84 5 -119 4 -53 -2
-63 0 -58 12 3 9 -1 18 -11 22 -15 6 -15 8 3 15 17 7 17 9 3 9 -12 1 -18 9
-18 25 0 33 -16 42 -30 16 -6 -11 -19 -20 -29 -20 -13 0 -20 -9 -24 -32 -6
-40 -2 -45 44 -51 56 -7 68 -18 51 -44 -7 -10 -14 -10 -35 0 -15 6 -27 17 -27
23 0 7 -11 14 -24 16 -19 4 -27 -1 -37 -21 -7 -14 -14 -28 -16 -30 -1 -2 -18
13 -37 33 -36 36 -50 41 -80 30 -25 -9 -19 -33 11 -47 21 -9 27 -9 31 1 2 6 8
12 14 12 5 0 6 -9 3 -20 -4 -14 -2 -20 8 -20 10 0 15 -12 15 -40 1 -32 -4 -44
-24 -56 l-24 -16 22 -20 c23 -20 23 -20 29 4 6 20 7 20 8 3 1 -31 -10 -40 -56
-43 -48 -3 -61 10 -43 44 11 20 10 29 -6 59 -18 35 -41 39 -68 14 -16 -14 2
-23 19 -9 16 13 16 12 19 -75 1 -16 12 -48 25 -69 l24 -39 23 27 c28 32 37 33
58 1 21 -32 20 -38 -6 -50 -17 -8 -22 -19 -24 -57 -1 -27 3 -48 8 -48 5 0 6
-4 3 -10 -3 -5 -17 -10 -31 -10 -25 0 -30 -14 -14 -40 14 -23 -7 -39 -44 -33
-21 3 -47 -1 -68 -11 -19 -9 -39 -16 -44 -15 -33 6 -45 -2 -38 -23 6 -20 5
-21 -10 -9 -14 12 -21 10 -54 -12 -48 -33 -127 -60 -153 -52 -28 9 -99 -4 -99
-18 1 -7 11 -25 24 -41 24 -29 24 -29 111 -23 101 7 111 -7 25 -36 -30 -10
-59 -22 -65 -27 -6 -5 -18 -2 -29 6 -30 21 -128 18 -157 -5 -41 -32 -65 -34
-116 -11 -35 16 -81 24 -171 31 -131 10 -160 8 -170 -8 -4 -5 -20 -13 -36 -17
-17 -4 -36 -15 -43 -24 -11 -15 -12 -15 -13 5 0 12 -4 24 -10 28 -5 3 -7 12
-3 20 6 18 -3 19 -46 4 -18 -7 -36 -22 -41 -35 -10 -25 -103 -84 -133 -84 -10
0 -28 -7 -42 -16 -18 -12 -28 -13 -44 -4 -26 13 -27 35 -3 50 14 9 13 10 -8 4
-26 -6 -103 -54 -108 -66 -2 -5 -16 -8 -32 -8 -15 0 -33 -7 -40 -15 -7 -8 -27
-15 -44 -15 -41 0 -106 -18 -106 -30 0 -5 16 -6 36 -3 29 5 36 3 32 -8 -3 -8
-20 -16 -39 -20 -19 -3 -43 -10 -55 -17 -14 -8 -24 -8 -31 -1 -6 6 -21 9 -34
7 -18 -2 -23 -9 -22 -26 2 -13 -2 -32 -8 -43 -9 -17 -17 -19 -51 -14 -37 7
-40 6 -38 -16 4 -40 1 -47 -20 -54 -12 -4 -20 -15 -20 -28 0 -28 61 -127 78
-127 10 0 8 -9 -8 -34 -17 -28 -19 -38 -9 -54 9 -14 8 -25 -5 -50 -21 -41 -20
-49 7 -48 17 1 23 -5 25 -26 2 -16 7 -28 12 -28 19 0 32 43 26 84 -19 118 -25
189 -17 205 15 28 75 55 104 47 30 -7 43 -37 28 -65 -16 -29 -14 -91 3 -97 15
-6 19 -61 5 -70 -5 -2 -6 -11 -3 -18 6 -16 -12 -31 -50 -40 -26 -6 -28 -10
-23 -40 3 -18 16 -55 29 -82 18 -39 30 -51 57 -58 27 -8 36 -6 46 7 18 25 25
10 25 -60 0 -59 1 -63 23 -63 13 0 32 9 42 20 24 26 36 25 58 -6 18 -24 18
-25 -17 -66 -19 -22 -49 -49 -66 -60 -19 -11 -28 -23 -24 -30 6 -9 9 -9 12 0
5 16 42 15 42 -1 0 -20 -30 -57 -45 -57 -19 0 -37 36 -30 60 5 14 -2 23 -27
36 -18 9 -45 28 -60 41 -31 30 -63 32 -108 9 -18 -9 -38 -16 -45 -16 -6 0 -26
-11 -45 -25 -19 -14 -39 -25 -46 -25 -17 0 -34 56 -37 123 -2 52 -4 57 -24 57
-16 0 -23 6 -23 18 0 11 -9 27 -20 37 -31 28 -23 124 12 132 27 8 22 18 -14
28 -32 10 -33 12 -36 67 -2 52 0 59 23 74 31 20 32 42 3 46 -13 2 -24 11 -26
21 -4 20 35 107 49 107 10 0 0 -61 -12 -75 -13 -14 -11 -25 6 -25 10 0 15 10
15 28 0 38 15 60 24 36 12 -30 26 4 26 62 l0 51 -32 -4 c-132 -17 -135 -17
-213 23 -41 21 -75 42 -75 46 0 18 -28 6 -52 -21 -24 -27 -25 -33 -22 -115 2
-48 9 -96 15 -107 6 -12 12 -33 14 -47 9 -64 26 -136 34 -146 5 -6 17 -38 26
-71 10 -33 21 -64 25 -70 4 -5 10 -57 14 -114 10 -140 14 -161 41 -171 13 -5
26 -13 29 -18 3 -5 27 -13 53 -17 26 -4 59 -13 73 -20 14 -7 50 -13 82 -13 60
0 98 -14 98 -36 0 -23 45 -56 77 -56 31 0 63 -26 63 -51 0 -27 54 -64 99 -67
23 -2 54 -10 69 -18 15 -8 35 -14 45 -14 21 0 18 20 -4 30 -8 4 -24 12 -36 18
-41 21 -58 30 -96 48 -43 21 -49 44 -12 44 34 0 105 -37 105 -55 0 -23 18 -27
44 -10 24 16 25 15 42 -10 14 -21 15 -31 6 -45 -10 -16 -6 -21 24 -39 19 -12
46 -21 60 -21 14 0 34 -5 45 -11 14 -7 24 -7 32 -1 26 22 157 -20 157 -49 0
-7 14 -8 39 -4 35 6 41 4 52 -17 6 -13 13 -24 14 -26 2 -2 14 3 27 10 12 7 24
14 26 14 2 1 9 25 17 53 12 45 11 55 -2 83 -13 24 -13 35 -4 47 6 9 19 29 29
45 9 16 27 39 40 51 27 27 28 45 2 95 -11 22 -20 46 -20 54 0 7 -6 16 -14 19
-7 3 -15 27 -19 59 -3 29 -9 62 -13 73 -7 20 -7 20 14 1 23 -20 44 -14 24 6
-7 7 -12 22 -12 35 0 17 -12 27 -50 45 -27 13 -50 28 -50 34 0 6 -11 21 -25
34 -14 13 -25 29 -25 36 0 13 -31 33 -82 55 -16 6 -28 14 -28 19 0 10 53 -1
61 -12 3 -5 21 -8 40 -6 27 3 30 6 16 12 -9 5 -31 21 -49 38 -28 26 -30 30
-16 45 13 12 14 22 6 45 -16 46 0 46 20 0 9 -23 21 -42 25 -42 15 0 67 58 67
74 0 9 -8 16 -18 16 -10 0 -25 11 -32 25 -7 13 -22 27 -32 31 -27 8 -19 40 9
36 33 -5 37 16 9 53 -15 19 -23 40 -20 49 8 22 24 20 24 -3 0 -19 23 -35 34
-24 3 4 6 16 6 29 0 32 39 53 96 51 l49 -2 26 75 27 75 16 -38 c10 -23 14 -47
9 -64 -6 -26 -5 -27 10 -11 10 9 21 27 25 39 8 20 13 13 45 -54 22 -46 43 -77
52 -77 8 0 15 5 15 10 0 6 -7 10 -15 10 -22 0 -18 18 4 25 11 3 22 16 24 28 3
13 5 7 6 -15 1 -25 6 -38 19 -42 9 -3 22 -16 27 -28 6 -13 19 -24 30 -26 11
-2 31 -16 45 -32 20 -22 31 -27 53 -23 20 4 27 11 27 29 0 17 -6 24 -20 24
-24 0 -40 35 -40 89 0 20 -6 43 -12 50 -11 10 -10 11 5 6 14 -6 17 -2 17 24 0
17 -4 31 -10 31 -5 0 -10 -5 -10 -12 0 -9 -3 -9 -12 0 -19 19 5 35 42 27 36
-8 48 -28 30 -50 -21 -25 -2 -30 38 -9 23 12 44 34 55 57 13 28 23 37 41 37
23 0 24 3 19 35 -4 23 0 43 11 59 9 14 16 32 16 39 0 12 21 14 114 11 105 -3
117 -2 162 21 27 14 60 25 73 25 33 0 103 -21 121 -36 9 -8 34 -20 57 -28 22
-8 60 -27 84 -42 66 -42 89 -54 110 -54 11 0 19 4 19 9 0 6 21 13 47 17 41 6
49 4 61 -15 8 -11 21 -21 28 -21 12 0 12 4 -1 24 -19 28 -13 33 44 42 41 7 41
7 35 40 -4 22 -2 34 5 34 6 0 11 -5 11 -10 0 -9 22 -1 50 18 3 2 6 34 7 70 1
37 6 141 10 232 7 134 5 167 -5 174 -10 6 -12 20 -8 50 11 75 9 168 -3 176 -9
5 -7 17 9 44 11 21 18 42 14 47 -3 5 5 19 18 30 17 16 19 19 5 15 -11 -3 -20
0 -24 10 -3 8 -11 13 -18 10 -8 -3 -11 2 -8 15 4 14 0 19 -16 19 -27 0 -27 7
2 31 22 19 22 19 3 34 -25 19 -46 19 -46 0 0 -19 -20 -19 -48 0 -26 19 -109
45 -116 37z m-172 -130 c2 -4 1 -13 -3 -20 -5 -9 -12 -7 -26 8 -18 19 -18 20
3 20 11 0 23 -4 26 -8z m79 -91 c-3 -12 2 -20 16 -24 12 -3 21 -10 21 -16 0
-27 -45 2 -55 37 -4 16 -2 22 8 22 10 0 13 -7 10 -19z m-123 -26 c12 -19 28
-35 35 -35 14 0 75 -71 75 -87 0 -4 -9 -14 -20 -21 -21 -13 -25 -5 -22 41 1 9
-3 17 -9 17 -5 0 -8 -4 -4 -9 3 -5 0 -13 -6 -17 -17 -10 -88 76 -89 107 0 22
7 39 16 39 1 0 12 -16 24 -35z m-49 -71 c7 -9 12 -29 11 -45 -2 -16 1 -29 7
-29 6 0 11 -5 11 -11 0 -8 -5 -8 -15 1 -8 7 -15 19 -15 27 0 8 -7 27 -15 43
-17 32 -6 41 16 14z m87 -93 c3 -8 -1 -12 -9 -9 -7 2 -15 10 -17 17 -3 8 1 12
9 9 7 -2 15 -10 17 -17z m-92 -158 c-11 -11 -19 6 -11 24 8 17 8 17 12 0 3
-10 2 -21 -1 -24z m-836 -719 c0 -8 -5 -12 -10 -9 -6 4 -8 11 -5 16 9 14 15
11 15 -7z m-992 -173 c25 -10 30 -16 20 -22 -11 -7 -10 -11 3 -25 13 -13 21
-14 38 -5 24 13 41 7 41 -15 0 -8 -9 -14 -20 -14 -11 0 -25 -9 -32 -20 -11
-18 -14 -18 -30 -3 -16 14 -21 15 -44 2 -23 -12 -27 -11 -40 6 -19 26 -18 74
3 97 9 10 19 17 22 15 3 -2 21 -9 39 -16z m-524 -123 c-6 -32 -8 -35 -21 -22
-8 7 -22 14 -31 14 -12 0 -8 8 13 30 34 36 47 28 39 -22z m-2 -83 c0 -5 -5
-11 -11 -13 -6 -2 -11 4 -11 13 0 9 5 15 11 13 6 -2 11 -8 11 -13z m38 -96 c0
-5 -4 -9 -10 -9 -5 0 -10 7 -10 16 0 8 5 12 10 9 6 -3 10 -10 10 -16z m520 1
c0 -5 -10 -10 -22 -10 -19 0 -20 2 -8 10 19 13 30 13 30 0z m-90 -35 c0 -8 -4
-15 -10 -15 -5 0 -10 7 -10 15 0 8 5 15 10 15 6 0 10 -7 10 -15z m550 -45 c0
-5 -5 -10 -11 -10 -5 0 -7 5 -4 10 3 6 8 10 11 10 2 0 4 -4 4 -10z m40 -40 c0
-5 -4 -10 -9 -10 -6 0 -13 5 -16 10 -3 6 1 10 9 10 9 0 16 -4 16 -10z m-376
-71 c-3 -5 -10 -7 -15 -3 -5 3 -7 10 -3 15 3 5 10 7 15 3 5 -3 7 -10 3 -15z
m139 -393 c-8 -42 -31 -66 -64 -66 -30 0 -46 14 -29 25 6 4 10 14 9 23 -4 28
12 72 30 81 27 16 61 -24 54 -63z"/>
<path d="M1521 3314 c0 -11 3 -14 6 -6 3 7 2 16 -1 19 -3 4 -6 -2 -5 -13z"/>
<path d="M3535 4787 c-13 -10 -15 -16 -6 -21 17 -11 41 0 41 19 0 19 -11 19
-35 2z"/>
<path d="M3250 4751 c0 -30 13 -41 25 -21 3 6 15 10 26 10 24 0 25 16 2 23
-10 2 -26 8 -35 12 -15 6 -18 2 -18 -24z"/>
<path d="M3135 4733 c-3 -10 -1 -19 5 -21 7 -3 27 -18 46 -34 l34 -30 11 26
c20 43 -1 76 -50 76 -28 0 -41 -5 -46 -17z"/>
<path d="M1750 4700 c0 -5 5 -10 11 -10 5 0 7 5 4 10 -3 6 -8 10 -11 10 -2 0
-4 -4 -4 -10z"/>
<path d="M3610 4700 c0 -13 11 -13 30 0 12 8 11 10 -7 10 -13 0 -23 -4 -23
-10z"/>
<path d="M3376 4683 c-4 -5 -13 -8 -19 -8 -7 0 -13 -8 -15 -17 -6 -29 19 -21
47 15 13 16 2 25 -13 10z"/>
<path d="M1696 4611 c-4 -7 -5 -15 -2 -18 9 -9 19 4 14 18 -4 11 -6 11 -12 0z"/>
<path d="M1662 4558 c-7 -7 -12 -18 -12 -25 0 -8 -7 -24 -16 -37 -8 -13 -11
-27 -6 -30 4 -3 20 20 35 50 26 51 25 68 -1 42z"/>
<path d="M3030 4540 c0 -5 5 -10 10 -10 6 0 10 5 10 10 0 6 -4 10 -10 10 -5 0
-10 -4 -10 -10z"/>
<path d="M3150 4539 c0 -5 5 -7 10 -4 6 3 10 8 10 11 0 2 -4 4 -10 4 -5 0 -10
-5 -10 -11z"/>
<path d="M3275 4540 c-10 -16 5 -50 21 -50 9 0 14 11 14 30 0 30 -21 42 -35
20z"/>
<path d="M1590 4445 c0 -8 5 -15 10 -15 6 0 10 7 10 15 0 8 -4 15 -10 15 -5 0
-10 -7 -10 -15z"/>
<path d="M3930 4450 c0 -5 5 -10 10 -10 6 0 10 5 10 10 0 6 -4 10 -10 10 -5 0
-10 -4 -10 -10z"/>
<path d="M1557 4390 c-22 -21 -27 -33 -20 -45 8 -14 13 -12 35 18 34 44 22 65
-15 27z"/>
<path d="M3145 4380 c-10 -11 -13 -20 -7 -20 21 0 62 20 62 30 0 17 -36 11
-55 -10z"/>
<path d="M3278 4311 c-10 -11 -13 -23 -9 -26 11 -6 34 21 29 35 -2 6 -11 2
-20 -9z"/>
<path d="M1484 4288 l-19 -23 23 19 c21 18 27 26 19 26 -2 0 -12 -10 -23 -22z"/>
<path d="M1431 4243 c-12 -11 -18 -23 -13 -30 5 -8 13 -2 24 18 20 34 18 35
-11 12z"/>
<path d="M3250 4250 c0 -5 4 -10 9 -10 6 0 13 5 16 10 3 6 -1 10 -9 10 -9 0
-16 -4 -16 -10z"/>
<path d="M2117 4192 c-33 -35 -23 -57 22 -47 37 8 41 -7 6 -23 -34 -16 -72
-15 -78 1 -4 9 -7 9 -17 0 -11 -10 -9 -16 11 -32 13 -11 38 -25 54 -32 17 -6
53 -23 82 -37 28 -15 55 -24 58 -20 10 10 -22 116 -44 144 -12 15 -21 33 -21
40 0 8 -7 14 -15 14 -8 0 -15 5 -15 10 0 17 -15 11 -43 -18z m97 -103 c-3 -5
-10 -7 -15 -3 -5 3 -7 10 -3 15 3 5 10 7 15 3 5 -3 7 -10 3 -15z"/>
<path d="M1354 4130 c-37 -55 -27 -58 14 -4 18 24 28 44 22 44 -5 0 -22 -18
-36 -40z"/>
<path d="M3194 4159 c-9 -15 -2 -18 20 -9 17 6 18 7 3 13 -9 3 -19 2 -23 -4z"/>
<path d="M2275 4090 c-8 -12 20 -24 35 -15 5 3 10 10 10 16 0 12 -37 12 -45
-1z"/>
<path d="M1330 4055 c0 -8 7 -15 15 -15 9 0 15 -9 15 -25 0 -21 5 -25 28 -24
15 0 22 3 15 5 -7 3 -22 21 -33 40 -23 36 -40 44 -40 19z"/>
<path d="M2380 4030 c0 -5 5 -10 10 -10 6 0 10 5 10 10 0 6 -4 10 -10 10 -5 0
-10 -4 -10 -10z"/>
<path d="M2014 4005 c3 -8 9 -22 12 -30 4 -10 0 -15 -10 -15 -9 0 -16 -7 -16
-15 0 -12 3 -13 19 -3 27 17 42 53 28 67 -16 16 -40 14 -33 -4z"/>
<path d="M2680 3950 c0 -5 11 -10 25 -10 14 0 28 0 32 -1 4 0 9 4 11 10 2 7
-11 11 -32 11 -20 0 -36 -4 -36 -10z"/>
<path d="M2720 3910 c0 -6 7 -10 15 -10 8 0 15 2 15 4 0 2 -7 6 -15 10 -8 3
-15 1 -15 -4z"/>
<path d="M1947 3893 c-4 -3 -7 -11 -7 -17 0 -6 5 -5 12 2 6 6 9 14 7 17 -3 3
-9 2 -12 -2z"/>
<path d="M6010 3731 c0 -5 5 -13 10 -16 6 -3 10 -2 10 4 0 5 -4 13 -10 16 -5
3 -10 2 -10 -4z"/>
<path d="M3614 3689 c-3 -6 -2 -15 3 -20 13 -13 43 -1 43 17 0 16 -36 19 -46
3z"/>
<path d="M6060 3676 c0 -3 6 -11 14 -18 28 -29 77 -126 66 -133 -6 -4 -17 10
-27 32 -15 35 -17 36 -22 15 l-6 -24 -19 21 c-11 12 -22 21 -26 21 -16 0 -19
-46 -5 -67 26 -39 16 -38 -25 2 -22 21 -40 34 -40 27 0 -7 5 -12 11 -12 6 0 9
-8 7 -17 -2 -12 -15 -17 -50 -18 -27 -2 -48 1 -48 6 0 5 -5 9 -11 9 -5 0 -7
-4 -4 -10 13 -20 -6 -30 -28 -15 -12 8 -27 15 -33 15 -16 0 -5 -40 12 -47 13
-5 21 -53 9 -53 -3 0 -19 10 -34 21 -34 25 -66 16 -34 -10 10 -9 24 -28 31
-43 10 -25 10 -28 -8 -28 -11 0 -20 -5 -20 -11 0 -7 -8 -18 -17 -25 -16 -11
-16 -17 -6 -45 16 -40 3 -60 -26 -42 -26 16 -47 -7 -32 -34 17 -32 115 -122
145 -133 l29 -11 -17 27 c-31 46 -10 37 45 -20 52 -54 79 -69 79 -43 -1 6 -15
21 -32 32 -52 33 -69 82 -19 55 26 -13 51 6 51 39 0 29 17 26 49 -8 19 -21 32
-27 42 -21 11 7 7 16 -19 43 -17 18 -32 38 -32 44 0 6 -5 13 -11 15 -7 2 -10
10 -8 17 4 10 13 7 34 -10 49 -39 136 -89 155 -89 21 0 8 16 -51 64 -51 42
-88 90 -77 102 2 1 25 -8 52 -22 27 -14 50 -23 52 -21 2 2 0 18 -5 35 -9 31
-9 32 20 27 19 -4 29 -1 30 7 13 142 -9 293 -41 273 -4 -2 -13 7 -20 20 -7 14
-21 27 -31 30 -9 3 -20 12 -23 20 -5 13 -26 22 -26 11z m-130 -239 c0 -6 -9
-2 -20 8 -11 10 -20 23 -20 28 0 6 9 2 20 -8 11 -10 20 -23 20 -28z m70 13 c0
-5 -2 -10 -4 -10 -3 0 -8 5 -11 10 -3 6 -1 10 4 10 6 0 11 -4 11 -10z m-60
-145 c7 -8 8 -15 2 -15 -5 0 -15 7 -22 15 -7 8 -8 15 -2 15 5 0 15 -7 22 -15z
m-15 -173 c-7 -7 -55 39 -55 52 0 5 13 -3 30 -19 16 -16 28 -31 25 -33z"/>
<path d="M3536 3651 c-18 -7 -17 -9 8 -28 14 -12 26 -24 26 -27 0 -10 39 -46
50 -46 6 0 10 -4 10 -10 0 -5 -6 -10 -14 -10 -8 0 -27 -5 -43 -11 l-28 -11 26
-12 c47 -20 36 -31 -41 -41 -74 -10 -96 -27 -44 -33 l27 -4 -28 -14 c-15 -8
-34 -14 -41 -14 -25 0 -15 -20 19 -34 l32 -14 -32 -1 c-17 -1 -35 4 -38 9 -8
12 -16 12 -35 0 -13 -9 -13 -11 -1 -19 12 -8 12 -12 2 -25 -12 -14 -9 -15 30
-11 129 13 195 14 212 0 18 -13 17 -14 -4 -20 -13 -5 -24 -2 -30 6 -6 10 -11
6 -19 -15 -14 -37 -9 -41 31 -27 39 13 99 14 99 2 0 -17 -22 -24 -30 -11 -11
18 -32 2 -25 -20 3 -11 1 -29 -5 -40 -16 -30 -8 -34 37 -19 46 16 64 29 39 29
-24 0 -12 15 26 34 40 20 39 21 31 -16 -6 -29 -5 -31 18 -24 13 4 59 11 101
15 43 3 83 12 89 18 7 7 26 10 43 8 l31 -5 -27 12 c-32 14 -38 33 -8 25 23 -6
26 3 8 21 -9 9 -6 12 17 12 l28 0 -23 25 c-21 22 -22 29 -12 45 15 24 16 50 2
50 -6 0 -13 8 -17 18 -12 32 -74 82 -104 82 -19 0 -30 6 -34 20 -6 19 -12 20
-78 14 -53 -4 -79 -2 -99 8 -22 12 -25 17 -15 27 9 10 6 12 -18 10 -43 -3 -69
10 -54 27 6 8 18 14 26 14 13 0 13 3 3 15 -10 12 -16 13 -27 4 -10 -9 -18 -8
-31 5 -20 17 -36 19 -66 7z m277 -158 c-13 -2 -33 -2 -45 0 -13 2 -3 4 22 4
25 0 35 -2 23 -4z m67 -13 c0 -5 -7 -10 -15 -10 -8 0 -15 5 -15 10 0 6 7 10
15 10 8 0 15 -4 15 -10z m52 -42 c-6 -6 -20 -7 -33 -2 l-24 8 25 6 c30 8 46 2
32 -12z m-322 -7 c0 -15 -37 -23 -62 -15 l-23 8 25 7 c37 10 60 10 60 0z m110
-26 c-14 -15 -35 -25 -51 -25 -15 0 -31 -4 -34 -10 -3 -5 -27 -10 -52 -10 -39
0 -44 2 -33 15 7 8 20 15 29 15 9 0 41 9 71 20 30 10 64 19 74 20 18 0 18 -2
-4 -25z m145 -15 c-3 -5 -13 -10 -21 -10 -8 0 -12 5 -9 10 3 6 13 10 21 10 8
0 12 -4 9 -10z m-85 -55 c0 -8 -6 -15 -14 -15 -20 0 -29 17 -14 23 22 9 28 7
28 -8z m-70 -24 c0 -5 -7 -12 -16 -15 -24 -9 -28 -7 -14 9 14 17 30 20 30 6z
m247 -18 c-9 -9 -19 -14 -23 -11 -10 10 6 28 24 28 15 0 15 -1 -1 -17z m-67 3
c0 -9 -30 -14 -35 -6 -4 6 3 10 14 10 12 0 21 -2 21 -4z"/>
<path d="M6181 3644 c0 -11 3 -14 6 -6 3 7 2 16 -1 19 -3 4 -6 -2 -5 -13z"/>
<path d="M1420 3640 c0 -5 9 -10 21 -10 11 0 17 5 14 10 -3 6 -13 10 -21 10
-8 0 -14 -4 -14 -10z"/>
<path d="M2810 3556 c0 -20 4 -35 8 -32 9 5 8 53 -1 63 -4 3 -7 -10 -7 -31z"/>
<path d="M2846 3572 c-2 -4 -1 -14 5 -22 7 -12 9 -10 9 8 0 23 -5 28 -14 14z"/>
<path d="M3750 3570 c0 -5 5 -10 10 -10 6 0 10 5 10 10 0 6 -4 10 -10 10 -5 0
-10 -4 -10 -10z"/>
<path d="M2884 3536 c-8 -18 -8 -30 3 -50 14 -26 33 -35 33 -15 0 6 9 8 21 4
20 -7 22 -5 16 30 -5 31 -4 35 8 25 10 -8 15 -9 15 -2 0 6 -9 16 -20 22 -18 9
-20 7 -21 -17 -1 -21 -3 -23 -6 -8 -5 18 -20 35 -33 35 -3 0 -10 -11 -16 -24z"/>
<path d="M2660 3485 c0 -8 7 -15 15 -15 8 0 15 7 15 15 0 8 -7 15 -15 15 -8 0
-15 -7 -15 -15z"/>
<path d="M3460 3478 c0 -12 18 -18 34 -12 24 9 19 19 -9 19 -14 0 -25 -3 -25
-7z"/>
<path d="M2760 3435 c-7 -8 -8 -15 -2 -15 5 0 15 7 22 15 7 8 8 15 2 15 -5 0
-15 -7 -22 -15z"/>
<path d="M2705 3410 c3 -5 10 -10 16 -10 5 0 9 5 9 10 0 6 -7 10 -16 10 -8 0
-12 -4 -9 -10z"/>
<path d="M2160 3360 c0 -5 5 -10 11 -10 5 0 7 5 4 10 -3 6 -8 10 -11 10 -2 0
-4 -4 -4 -10z"/>
<path d="M2455 3359 c-8 -11 24 -79 37 -79 12 0 10 14 -6 35 -8 11 -12 25 -9
31 6 16 -14 27 -22 13z"/>
<path d="M4105 3310 c-3 -5 -4 -10 -1 -10 2 0 12 -3 20 -6 12 -5 15 -2 10 10
-7 18 -20 21 -29 6z"/>
<path d="M2103 3298 c2 -7 10 -13 17 -13 7 0 15 6 18 13 2 7 -5 12 -18 12 -13
0 -20 -5 -17 -12z"/>
<path d="M2680 3296 c0 -2 7 -7 16 -10 8 -3 12 -2 9 4 -6 10 -25 14 -25 6z"/>
<path d="M1177 3283 c-10 -9 -9 -43 1 -43 14 0 43 36 35 43 -8 9 -28 9 -36 0z"/>
<path d="M3186 3273 c-11 -11 -6 -23 9 -23 8 0 15 4 15 9 0 13 -16 22 -24 14z"/>
<path d="M6170 3240 c0 -5 5 -10 11 -10 5 0 7 5 4 10 -3 6 -8 10 -11 10 -2 0
-4 -4 -4 -10z"/>
<path d="M2520 3226 c0 -9 5 -16 10 -16 6 0 10 4 10 9 0 6 -4 13 -10 16 -5 3
-10 -1 -10 -9z"/>
<path d="M3200 3225 c0 -9 5 -15 11 -13 6 2 11 8 11 13 0 5 -5 11 -11 13 -6 2
-11 -4 -11 -13z"/>
<path d="M1150 3226 c0 -2 8 -10 18 -17 15 -13 16 -12 3 4 -13 16 -21 21 -21
13z"/>
<path d="M4501 3214 c0 -11 3 -14 6 -6 3 7 2 16 -1 19 -3 4 -6 -2 -5 -13z"/>
<path d="M2367 3214 c-8 -8 1 -24 14 -24 5 0 9 7 9 15 0 15 -12 20 -23 9z"/>
<path d="M2857 3183 c-14 -13 -6 -25 13 -20 10 3 21 0 23 -7 2 -6 7 -8 11 -5
3 3 4 14 0 23 -6 16 -35 22 -47 9z"/>
<path d="M5660 3175 c0 -26 61 -95 83 -95 7 0 -2 13 -20 28 -17 15 -33 36 -35
46 -3 18 -28 36 -28 21z"/>
<path d="M6595 3165 c-6 -8 -61 -26 -130 -41 -66 -14 -124 -29 -128 -34 -5 -4
-11 -34 -14 -66 -3 -32 -12 -83 -20 -112 -8 -29 -12 -60 -9 -68 8 -21 47 -17
53 6 6 23 26 25 68 5 l30 -13 -40 -1 c-48 -1 -60 -8 -67 -38 -5 -19 2 -28 35
-48 l42 -26 -40 3 c-32 2 -41 7 -43 25 -5 31 -28 49 -46 34 -16 -13 -38 -100
-29 -114 3 -5 19 -7 37 -4 17 3 82 -2 145 -10 94 -12 116 -12 123 -1 18 27 2
53 -50 82 -29 17 -49 32 -45 33 5 2 35 7 68 11 58 7 60 8 60 36 0 28 -4 31
-112 69 -96 34 -113 43 -113 61 1 50 14 51 103 2 52 -28 87 -54 90 -66 6 -22
29 -26 45 -7 5 6 13 33 16 59 6 40 4 48 -13 57 -16 9 -22 7 -33 -8 -24 -34
-40 -11 -31 44 9 51 31 71 40 36 3 -14 13 -21 29 -21 19 0 24 7 29 38 13 74
10 92 -18 92 -12 0 -27 -7 -32 -15z m38 -54 c-9 -47 -26 -59 -31 -23 -3 20 -8
23 -30 17 -35 -9 -34 -6 -43 -67 -8 -48 -7 -55 14 -70 28 -23 34 -22 40 2 3
11 11 20 17 20 9 0 11 -13 6 -47 -8 -58 -13 -63 -34 -37 -16 20 -55 44 -155
97 -39 21 -49 23 -53 11 -2 -7 -6 -21 -9 -29 -2 -8 -10 -15 -16 -15 -12 0 -4
100 9 111 4 3 63 18 132 34 75 16 128 33 134 42 15 28 28 -2 19 -46z m-168
-225 c55 -20 105 -38 112 -41 6 -2 9 -13 6 -24 -5 -19 -13 -21 -89 -21 -46 0
-84 -4 -84 -8 0 -4 32 -25 70 -46 49 -26 70 -43 70 -57 0 -23 -15 -24 -153 -5
-54 7 -100 9 -103 4 -10 -16 -24 -7 -24 16 0 34 17 76 30 76 7 0 10 -12 8 -27
-3 -27 -1 -28 57 -35 33 -4 75 -9 93 -12 44 -7 35 3 -42 44 -95 50 -90 68 22
77 37 3 68 6 70 8 4 3 -144 55 -157 55 -6 0 -11 -6 -11 -14 0 -18 -16 -29 -29
-21 -6 3 -6 18 0 38 6 17 13 38 15 46 4 11 7 11 22 -2 9 -9 62 -32 117 -51z"/>
<path d="M6440 3078 c-25 -5 -48 -13 -52 -17 -5 -4 17 -20 47 -36 30 -15 57
-26 59 -24 2 2 6 23 10 47 7 47 9 46 -64 30z m50 -26 c0 -27 -9 -32 -36 -20
-39 18 -33 25 29 37 4 0 7 -7 7 -17z"/>
<path d="M1107 3163 c-13 -12 -7 -43 8 -43 9 0 15 9 15 25 0 24 -10 32 -23 18z"/>
<path d="M2768 3143 c6 -2 18 -2 25 0 6 3 1 5 -13 5 -14 0 -19 -2 -12 -5z"/>
<path d="M2495 3110 c-3 -5 1 -13 10 -16 22 -9 29 1 11 15 -10 8 -16 9 -21 1z"/>
<path d="M4080 3110 c-13 -8 -12 -10 3 -10 9 0 17 5 17 10 0 12 -1 12 -20 0z"/>
<path d="M1220 3085 c0 -14 5 -25 10 -25 6 0 10 11 10 25 0 14 -4 25 -10 25
-5 0 -10 -11 -10 -25z"/>
<path d="M5630 3101 c0 -5 7 -12 16 -15 14 -5 15 -4 4 9 -14 17 -20 19 -20 6z"/>
<path d="M3955 3090 c-3 -5 3 -10 14 -10 12 0 21 5 21 10 0 6 -6 10 -14 10 -8
0 -18 -4 -21 -10z"/>
<path d="M3895 3070 c-3 -5 1 -10 9 -10 9 0 16 5 16 10 0 6 -4 10 -9 10 -6 0
-13 -4 -16 -10z"/>
<path d="M6105 3055 c33 -27 65 -33 65 -12 0 8 -17 19 -39 25 -55 17 -60 14
-26 -13z"/>
<path d="M4055 3050 c-7 -12 4 -16 63 -24 52 -8 56 9 5 23 -47 14 -60 14 -68
1z"/>
<path d="M3950 3040 c0 -5 9 -10 19 -10 11 0 23 5 26 10 4 6 -5 10 -19 10 -14
0 -26 -4 -26 -10z"/>
<path d="M2120 3030 c0 -5 5 -10 10 -10 6 0 10 5 10 10 0 6 -4 10 -10 10 -5 0
-10 -4 -10 -10z"/>
<path d="M3863 3033 c-17 -6 -16 -23 1 -23 8 0 16 7 20 15 6 15 1 17 -21 8z"/>
<path d="M4033 3013 c-36 -5 -41 -16 -18 -39 23 -23 18 -34 -14 -34 -31 0 -57
-22 -46 -40 4 -6 -2 -20 -14 -31 -12 -11 -21 -25 -21 -31 0 -7 -10 -22 -22
-35 -37 -40 -14 -34 30 7 23 22 49 40 57 40 19 0 104 43 105 53 0 4 -9 7 -20
7 -11 0 -20 5 -20 10 0 6 5 10 10 10 6 0 9 12 8 27 -2 21 2 28 20 32 13 3 23
11 23 16 0 11 -30 14 -78 8z"/>
<path d="M3888 2988 c-16 -5 -28 -16 -28 -24 0 -21 15 -17 47 11 30 26 25 30
-19 13z"/>
<path d="M6058 2973 c6 -2 18 -2 25 0 6 3 1 5 -13 5 -14 0 -19 -2 -12 -5z"/>
<path d="M4100 2950 c-27 -17 0 -24 33 -7 30 15 31 16 7 16 -14 0 -32 -3 -40
-9z"/>
<path d="M2300 2941 c0 -20 20 -61 30 -61 14 0 13 43 -2 58 -14 14 -28 16 -28
3z"/>
<path d="M2430 2920 c0 -5 5 -10 11 -10 5 0 7 5 4 10 -3 6 -8 10 -11 10 -2 0
-4 -4 -4 -10z"/>
<path d="M3784 2920 c-28 -11 -40 -30 -19 -30 22 0 55 18 55 30 0 12 -8 12
-36 0z"/>
<path d="M4126 2915 c-6 -17 11 -20 34 -5 9 5 19 5 27 -2 8 -6 17 -8 20 -4 11
10 -18 26 -48 26 -15 0 -29 -7 -33 -15z"/>
<path d="M3865 2860 c-3 -5 -2 -10 4 -10 5 0 13 5 16 10 3 6 2 10 -4 10 -5 0
-13 -4 -16 -10z"/>
<path d="M4134 2857 c-29 -16 -2 -27 49 -21 55 7 87 23 49 25 -67 4 -85 3 -98
-4z"/>
<path d="M4015 2788 c-60 -42 -65 -44 -65 -23 0 8 -5 15 -11 15 -6 0 -8 -11
-4 -29 5 -23 1 -31 -20 -45 -29 -19 -36 -1 -7 20 16 13 16 13 0 14 -11 0 -26
-17 -39 -42 -27 -54 -44 -70 -105 -101 -62 -31 -101 -63 -91 -73 4 -5 27 2 50
15 24 13 52 21 62 19 18 -4 17 -5 -6 -18 -22 -12 -25 -19 -18 -37 6 -17 16
-23 40 -23 42 0 189 70 222 106 31 33 36 57 10 47 -11 -4 -14 -3 -9 5 15 25
-14 10 -74 -38 -67 -54 -75 -58 -66 -35 7 20 -13 19 -35 -1 -10 -9 -23 -13
-29 -9 -7 4 8 19 37 38 27 18 69 51 93 74 29 29 47 40 54 33 6 -6 18 -10 27
-10 10 0 19 -5 21 -12 7 -20 52 0 103 47 28 26 42 44 32 41 -9 -3 -29 -1 -44
5 -20 7 -23 13 -15 21 19 19 14 26 -24 30 -30 3 -46 -3 -89 -34z m110 -38 c-3
-5 -10 -10 -16 -10 -5 0 -9 5 -9 10 0 6 7 10 16 10 8 0 12 -4 9 -10z m-128
-16 c-3 -3 -12 -4 -19 -1 -8 3 -5 6 6 6 11 1 17 -2 13 -5z m70 0 c-3 -3 -12
-4 -19 -1 -8 3 -5 6 6 6 11 1 17 -2 13 -5z"/>
<path d="M693 2797 c-9 -19 -27 -27 -92 -42 -62 -14 -84 -16 -93 -7 -15 15
-45 15 -54 1 -3 -6 6 -65 22 -130 l28 -120 40 6 c43 7 86 29 86 44 0 18 -29
32 -53 26 -30 -8 -33 -3 -42 56 -7 45 -6 46 22 52 36 7 51 -7 29 -28 -20 -20
-20 -29 -2 -45 23 -19 110 9 114 37 2 14 -4 23 -17 28 -21 6 -30 35 -12 35 5
0 16 3 24 6 11 4 19 -5 26 -33 15 -52 14 -57 -11 -68 -13 -6 -23 -19 -23 -30
0 -17 6 -20 49 -18 27 1 53 6 59 12 8 8 4 39 -12 108 -13 54 -28 106 -33 116
-12 24 -43 21 -55 -6z m70 -100 c24 -93 24 -98 7 -107 -24 -13 -70 -13 -70 0
0 5 11 12 25 16 14 3 25 10 25 15 0 22 -23 109 -29 114 -14 8 -81 -16 -81 -30
0 -25 12 -45 27 -45 8 0 13 -5 11 -12 -5 -15 -58 -30 -78 -22 -13 5 -12 7 3
19 23 17 14 68 -12 61 -9 -2 -31 -8 -50 -11 -36 -8 -36 -11 -11 -105 9 -34 12
-36 45 -32 20 2 35 0 35 -6 0 -13 -66 -36 -84 -29 -15 6 -63 214 -52 225 4 4
14 -1 21 -12 13 -18 17 -17 110 5 83 20 99 27 106 48 14 36 25 18 52 -92z"/>
<path d="M4210 2785 c0 -13 55 -25 86 -19 54 10 39 24 -26 24 -33 0 -60 -2
-60 -5z"/>
<path d="M2315 2751 c-3 -5 -1 -12 5 -16 5 -3 10 1 10 9 0 18 -6 21 -15 7z"/>
<path d="M2290 2720 c0 -5 5 -10 11 -10 5 0 7 5 4 10 -3 6 -8 10 -11 10 -2 0
-4 -4 -4 -10z"/>
<path d="M2515 2710 c-6 -19 2 -80 10 -80 2 0 10 3 19 6 20 8 20 21 0 41 -8 9
-13 22 -10 29 3 7 1 16 -4 19 -5 3 -11 -4 -15 -15z"/>
<path d="M3635 2723 c-20 -5 -105 -60 -105 -68 0 -3 15 -2 33 2 39 7 93 38
101 58 6 16 4 16 -29 8z"/>
<path d="M2565 2700 c-8 -12 2 -30 17 -30 6 0 17 -8 24 -17 12 -16 13 -16 14
9 0 34 -40 62 -55 38z"/>
<path d="M2390 2680 c0 -5 5 -10 10 -10 6 0 10 5 10 10 0 6 -4 10 -10 10 -5 0
-10 -4 -10 -10z"/>
<path d="M2470 2670 c0 -5 5 -10 10 -10 6 0 10 5 10 10 0 6 -4 10 -10 10 -5 0
-10 -4 -10 -10z"/>
<path d="M4256 2654 c-35 -24 -38 -28 -22 -39 15 -12 12 -14 -23 -20 -23 -4
-43 -11 -47 -16 -3 -5 -13 -9 -22 -9 -10 1 -1 9 20 20 20 11 40 25 44 32 5 10
4 10 -6 1 -13 -12 -40 -7 -40 8 0 5 3 8 8 8 18 -3 32 2 32 11 0 15 -62 0 -102
-26 -21 -13 -38 -28 -38 -33 0 -5 -19 -21 -42 -35 -74 -45 -85 -55 -68 -66 11
-7 3 -10 -27 -10 -23 0 -43 -3 -45 -7 -1 -5 -34 -23 -71 -41 -65 -31 -79 -52
-36 -52 11 0 17 -4 14 -10 -3 -5 1 -10 10 -10 9 0 19 9 22 19 5 21 63 33 86
19 9 -6 9 -8 0 -8 -7 0 -13 -7 -13 -16 0 -10 6 -14 15 -10 8 3 15 4 15 2 0 -9
-33 -67 -41 -72 -6 -3 -15 -17 -20 -31 -7 -20 -14 -24 -35 -20 -18 3 -38 -3
-62 -19 -22 -15 -48 -24 -71 -23 -20 0 -30 3 -23 6 6 2 12 9 12 15 0 6 -16 8
-42 4 -24 -4 -62 -6 -85 -6 -27 1 -43 -4 -43 -11 0 -9 -29 -10 -111 -6 -88 5
-116 10 -133 24 -60 53 -147 104 -166 98 -14 -5 -20 -2 -20 9 0 23 -36 20 -60
-4 -11 -11 -31 -20 -45 -20 -14 0 -25 -5 -25 -10 0 -19 54 -31 111 -25 37 4
59 3 64 -4 3 -6 11 -9 16 -5 13 7 51 -25 43 -37 -3 -5 -20 -9 -38 -9 -46 0
-96 -11 -96 -20 0 -13 125 -70 153 -70 34 0 35 -18 2 -26 -16 -4 -24 -12 -23
-22 2 -11 -15 -25 -49 -42 -29 -14 -53 -30 -53 -37 0 -7 21 -14 48 -18 26 -3
68 -17 94 -31 45 -23 51 -24 126 -15 43 6 100 17 127 27 27 9 63 16 79 15 17
0 38 -1 46 -1 8 0 39 4 68 9 49 9 132 3 175 -14 10 -4 24 -1 34 6 14 12 15 11
9 -9 -7 -20 -4 -22 26 -22 18 -1 51 -9 73 -20 44 -21 96 -25 125 -10 22 12
125 20 162 13 13 -2 59 -31 103 -64 50 -37 86 -57 97 -53 9 3 20 -2 25 -11 13
-23 109 -47 178 -45 118 5 177 1 218 -14 23 -8 65 -18 92 -21 28 -4 55 -10 60
-15 15 -11 85 -20 85 -10 0 4 -16 11 -35 14 -22 5 -35 13 -35 23 0 9 -6 13
-14 10 -9 -4 -16 3 -21 20 -4 19 -10 23 -23 17 -9 -4 -34 -9 -54 -12 -32 -3
-38 -1 -38 14 -1 12 -14 25 -34 35 -28 13 -37 13 -52 2 -25 -18 -48 -17 -40 2
6 16 -13 55 -26 55 -4 0 -8 -19 -10 -42 -3 -42 -28 -68 -28 -29 0 32 -16 33
-56 6 -42 -28 -57 -26 -29 5 18 20 15 24 -17 21 -10 -1 -18 2 -18 7 0 5 -10
12 -21 15 -14 4 -20 11 -16 21 3 8 2 18 -3 21 -14 9 -12 45 3 45 8 0 7 4 -3
10 -8 5 -35 10 -59 10 -36 0 -41 2 -32 14 14 17 2 28 -55 51 -54 21 -64 57
-25 91 14 13 32 24 40 24 11 0 11 3 0 16 -12 15 -11 16 7 10 28 -9 39 17 22
55 -11 25 -17 27 -63 27 -103 0 -151 28 -75 43 18 4 35 11 39 17 3 5 17 12 31
14 14 2 -9 8 -50 12 -73 9 -74 9 -35 17 79 17 86 20 80 29 -3 6 -18 11 -33 12
-15 1 9 4 53 7 l80 6 -32 18 c-45 24 -133 23 -166 -3 -25 -20 -57 -27 -57 -12
0 5 10 19 22 32 l21 23 -35 -7 c-33 -6 -48 3 -48 30 0 9 39 4 45 -6 7 -12 65
-14 65 -2 0 4 -5 13 -12 20 -9 9 -5 12 18 13 25 0 26 2 9 9 -11 4 -38 6 -60 3
-36 -6 -39 -5 -26 10 7 10 10 17 5 17 -5 0 1 7 14 15 12 9 44 19 72 22 61 7
69 17 35 39 -14 9 -25 23 -25 30 0 22 -32 16 -74 -12z m-370 -219 c-11 -8 -24
-15 -30 -15 -5 0 -1 7 10 15 10 8 24 14 29 14 6 0 1 -6 -9 -14z m239 -25 c4
-6 -5 -10 -19 -10 -14 0 -26 5 -26 10 0 6 9 10 19 10 11 0 23 -4 26 -10z
m-141 -58 c-6 -4 -13 -15 -17 -24 -3 -10 -13 -18 -22 -18 -14 0 -14 3 2 25 10
13 25 24 33 25 9 0 11 -3 4 -8z m43 -49 c-9 -9 -20 -13 -24 -9 -4 4 -1 11 7
16 25 16 35 11 17 -7z m-102 -24 c-4 -5 -13 -9 -22 -9 -13 0 -13 3 -3 15 13
15 35 11 25 -6z m438 -76 c-7 -2 -19 -2 -25 0 -7 3 -2 5 12 5 14 0 19 -2 13
-5z m-736 -49 c-3 -3 -12 -4 -19 -1 -8 3 -5 6 6 6 11 1 17 -2 13 -5z m-149
-76 c-25 -7 -51 -7 -75 0 -35 9 -31 10 37 10 68 0 72 -1 38 -10z m-175 -18
c16 -19 15 -21 -9 -36 -20 -14 -30 -15 -49 -6 -31 14 -32 34 -2 48 33 17 41
16 60 -6z m1120 -52 c37 -18 34 -32 -4 -24 -17 3 -45 6 -61 6 -26 0 -29 2 -18
15 15 18 47 19 83 3z m-146 -4 c-3 -3 -12 -4 -19 -1 -8 3 -5 6 6 6 11 1 17 -2
13 -5z m-7 -24 c0 -5 -9 -10 -20 -10 -11 0 -20 5 -20 10 0 6 9 10 20 10 11 0
20 -4 20 -10z"/>
<path d="M2640 2660 c0 -5 5 -10 11 -10 5 0 7 5 4 10 -3 6 -8 10 -11 10 -2 0
-4 -4 -4 -10z"/>
<path d="M2998 2653 c7 -3 16 -2 19 1 4 3 -2 6 -13 5 -11 0 -14 -3 -6 -6z"/>
<path d="M3730 2640 c-12 -8 -11 -10 8 -10 12 0 22 5 22 10 0 13 -11 13 -30 0z"/>
<path d="M2670 2601 c0 -15 29 -33 41 -25 9 5 7 11 -6 21 -22 15 -35 17 -35 4z"/>
<path d="M2865 2590 c3 -5 13 -10 21 -10 8 0 14 5 14 10 0 6 -9 10 -21 10 -11
0 -17 -4 -14 -10z"/>
<path d="M4315 2570 c-3 -5 3 -10 14 -10 12 0 21 5 21 10 0 6 -6 10 -14 10 -8
0 -18 -4 -21 -10z"/>
<path d="M6411 2537 c-28 -73 -28 -73 41 -117 72 -46 83 -48 98 -19 10 18 3
29 -59 92 l-70 72 -10 -28z m78 -59 c78 -81 60 -107 -31 -45 -46 31 -55 48
-42 81 9 25 19 20 73 -36z"/>
<path d="M699 2511 c-22 -17 -24 -27 -24 -98 l0 -78 -30 0 c-26 0 -31 5 -39
37 -8 33 -6 41 12 61 26 28 28 43 5 55 -19 11 -69 -2 -93 -24 -12 -12 -12 -18
-2 -34 6 -11 12 -33 12 -48 0 -37 38 -93 73 -110 37 -18 82 -7 108 26 17 22
20 38 17 96 -3 63 -1 71 16 74 42 9 61 -61 26 -93 -43 -39 -15 -65 47 -44 45
14 55 27 42 50 -5 10 -9 30 -9 44 0 83 -100 136 -161 86z m112 -19 c23 -21 32
-38 34 -64 1 -19 6 -41 10 -48 10 -16 -4 -28 -43 -36 -37 -7 -41 4 -12 31 26
23 25 55 -1 89 -42 53 -82 25 -79 -56 4 -78 2 -85 -22 -108 -56 -52 -138 6
-140 99 -1 17 -5 34 -10 37 -17 11 -7 23 28 34 19 7 37 10 40 8 2 -2 -5 -22
-16 -42 -18 -36 -18 -41 -4 -74 22 -54 52 -66 85 -36 15 13 17 27 12 83 -5 65
-5 68 22 89 37 29 58 28 96 -6z"/>
<path d="M2930 2520 c0 -5 10 -10 23 -10 18 0 19 2 7 10 -19 13 -30 13 -30 0z"/>
<path d="M2460 2492 c0 -5 7 -17 15 -28 15 -19 20 -8 9 20 -6 17 -24 22 -24 8z"/>
<path d="M3685 2480 c-19 -8 -19 -9 2 -9 12 -1 25 4 28 9 7 12 -2 12 -30 0z"/>
<path d="M3024 2427 c6 -24 3 -27 -19 -27 -30 0 -33 -15 -6 -30 13 -6 28 -7
44 -1 19 8 32 4 60 -15 51 -34 100 -31 65 4 -9 9 -5 12 20 12 22 0 32 5 32 15
0 10 -10 15 -27 15 -21 0 -24 3 -13 10 18 11 6 16 -65 24 -27 3 -61 9 -74 12
-22 7 -23 5 -17 -19z"/>
<path d="M6140 2385 c-52 -116 -66 -163 -52 -177 9 -9 17 -9 36 2 22 11 34 9
105 -21 67 -28 81 -38 81 -57 l0 -22 -41 20 c-43 22 -69 21 -69 -4 0 -14 39
-51 61 -58 10 -3 -27 -78 -38 -78 -4 0 -150 77 -161 85 -1 1 2 14 7 28 11 29
-6 51 -31 42 -20 -8 -81 -123 -74 -140 8 -21 43 -19 55 3 9 15 17 13 94 -27
83 -44 84 -44 73 -72 -13 -36 -27 -41 -83 -29 -61 14 -67 6 -7 -9 26 -7 60 -9
75 -6 35 8 35 4 7 -46 -24 -44 -52 -54 -42 -15 4 18 1 25 -18 30 -13 3 -26 6
-29 6 -3 0 -20 -23 -38 -50 l-32 -50 19 -25 c17 -21 21 -23 32 -10 14 17 30
20 30 5 0 -18 -45 -80 -55 -76 -5 2 -9 9 -8 17 2 8 -15 37 -37 64 -21 28 -51
69 -67 92 -31 48 -39 52 -48 23 -7 -21 -35 -28 -35 -8 0 18 51 88 64 88 6 0
37 -6 69 -14 31 -7 57 -10 57 -6 0 7 -98 30 -129 30 -21 0 -85 -96 -77 -116 7
-19 35 -18 57 2 16 14 21 9 73 -62 31 -43 56 -87 56 -101 0 -54 50 -35 86 33
19 35 19 36 0 50 -15 10 -23 11 -33 2 -10 -8 -17 -8 -24 -1 -8 8 -3 23 15 52
30 47 56 54 56 16 0 -38 30 -44 54 -11 39 51 167 277 170 301 1 7 7 19 12 26
14 18 94 203 94 217 0 14 -90 54 -107 48 -21 -8 -15 -44 10 -57 12 -6 23 -13
25 -14 6 -5 -40 -95 -49 -95 -20 0 -49 21 -49 35 0 7 10 15 23 17 37 5 28 40
-16 61 -56 26 -72 20 -70 -26 3 -40 -10 -47 -40 -24 -15 11 -15 15 3 54 17 40
21 42 49 37 23 -5 32 -2 37 11 8 21 -10 39 -59 59 l-38 15 -29 -64z m75 31
c44 -19 47 -41 4 -32 -29 5 -31 3 -56 -50 -14 -30 -23 -57 -22 -58 2 -2 20
-11 39 -20 33 -16 35 -16 47 1 15 20 17 43 3 43 -5 0 -10 7 -10 15 0 19 11 19
55 -2 34 -16 43 -41 13 -35 -8 1 -20 -9 -26 -23 -12 -25 -10 -27 34 -46 25
-12 47 -19 48 -17 8 10 46 109 46 118 0 6 -11 15 -25 20 -29 11 -33 30 -7 30
25 0 72 -23 72 -35 0 -11 -69 -169 -83 -192 -13 -20 -30 -15 -24 7 5 21 7 20
-118 75 -55 24 -76 27 -91 14 -28 -23 -27 1 6 78 18 43 36 88 41 101 10 26 10
26 54 8z m-159 -301 c-3 -8 -9 -21 -12 -29 -3 -9 5 -19 23 -28 15 -8 58 -31
95 -51 36 -20 68 -37 70 -37 3 0 15 23 28 51 24 50 24 51 5 65 -10 8 -25 14
-32 14 -7 0 -13 7 -13 15 0 8 6 15 14 15 20 0 86 -40 86 -51 0 -9 -78 -157
-100 -189 -9 -13 -11 -13 -19 0 -7 10 -5 20 5 31 13 15 11 19 -21 38 -20 11
-38 21 -41 21 -2 0 -21 11 -42 24 -60 38 -81 41 -99 16 -25 -35 -38 -9 -15 31
10 19 24 44 31 57 13 25 47 32 37 7z"/>
<path d="M3670 2371 c0 -5 6 -11 13 -13 17 -7 38 2 31 13 -7 12 -44 12 -44 0z"/>
<path d="M4430 2370 c20 -13 33 -13 25 0 -3 6 -14 10 -23 10 -15 0 -15 -2 -2
-10z"/>
<path d="M2921 2361 c-11 -7 -9 -10 8 -16 24 -7 61 2 61 16 0 11 -50 12 -69 0z"/>
<path d="M820 2308 c-35 -18 -45 -28 -45 -48 0 -26 15 -30 63 -15 16 6 22 3
22 -9 0 -10 -27 -29 -76 -51 -88 -41 -91 -41 -99 -15 -7 23 -50 28 -58 7 -7
-19 51 -154 70 -161 24 -10 43 13 40 47 -2 29 2 32 76 66 66 29 80 33 87 20 7
-10 2 -18 -20 -28 -21 -10 -30 -22 -30 -38 0 -32 25 -39 66 -19 19 9 36 16 37
16 1 0 3 -15 4 -34 l1 -34 -91 -10 c-51 -6 -105 -10 -122 -9 -40 3 -43 -21 -9
-78 20 -35 32 -45 48 -43 15 2 22 11 24 31 4 36 16 34 41 -7 30 -48 26 -87 -5
-56 -15 15 -44 1 -44 -22 0 -25 10 -44 88 -161 66 -99 98 -127 147 -127 29 0
85 49 85 74 0 9 8 16 20 16 12 0 32 11 45 25 38 37 34 90 -11 156 -55 81 -71
96 -92 83 -9 -6 -17 -21 -17 -32 0 -23 -131 -122 -152 -115 -25 9 -12 32 72
133 l85 101 -27 47 c-14 26 -31 53 -37 60 -5 8 -33 66 -61 130 -28 64 -58 118
-66 120 -8 1 -34 -8 -59 -20z m94 -66 c63 -148 61 -129 16 -152 -46 -24 -60
-25 -60 -6 0 7 14 19 30 26 17 7 30 14 30 16 0 16 -22 54 -32 54 -7 0 -54 -18
-105 -41 -81 -36 -91 -44 -83 -60 13 -23 13 -39 0 -39 -13 0 -60 97 -60 124 0
15 3 16 15 6 8 -7 15 -19 15 -26 0 -20 12 -18 83 14 34 16 77 35 95 43 35 15
39 26 18 54 -13 18 -26 18 -68 0 -33 -13 -19 21 15 38 52 26 60 22 91 -51z
m110 -221 l26 -50 -85 -98 c-47 -54 -85 -106 -85 -116 0 -28 -23 -15 -45 26
-22 41 -15 59 14 33 19 -17 20 -17 36 8 16 24 15 27 -11 73 -15 26 -29 50 -30
51 -1 2 -16 1 -33 -3 -26 -5 -29 -9 -21 -24 9 -18 4 -31 -11 -31 -7 0 -49 74
-49 86 0 4 10 4 23 0 31 -8 237 24 237 38 0 6 -4 18 -9 26 -10 15 -6 30 9 30
4 0 20 -22 34 -49z m113 -193 c57 -84 62 -93 62 -114 1 -31 -36 -74 -65 -74
-19 0 -26 -6 -30 -30 -13 -60 -87 -79 -131 -32 -33 36 -93 126 -93 141 0 14
13 14 27 0 8 -8 20 -4 45 13 19 12 60 40 90 60 45 30 55 42 51 58 -9 34 15 22
44 -22z"/>
<path d="M913 1963 c-18 -2 -33 -6 -33 -8 0 -15 36 -75 44 -75 6 1 28 21 49
45 l38 45 -33 -2 c-18 0 -48 -3 -65 -5z m41 -25 c-19 -34 -27 -39 -35 -26 -13
19 -11 26 9 31 30 8 33 7 26 -5z"/>
<path d="M1073 1779 l-33 -21 18 -30 c32 -57 82 -73 106 -35 9 13 6 27 -13 62
-13 25 -29 45 -35 45 -6 0 -26 -10 -43 -21z m77 -70 c0 -26 -28 -25 -57 3 -28
26 -29 36 -5 54 15 12 20 10 40 -12 12 -14 22 -34 22 -45z"/>
<path d="M973 1710 c-18 -11 -33 -25 -33 -31 0 -22 56 -88 80 -94 31 -8 64 27
54 59 -10 31 -48 86 -59 86 -5 0 -25 -9 -42 -20z m71 -54 c30 -58 -14 -78 -58
-25 -32 37 -32 44 -4 63 25 18 36 11 62 -38z"/>
<path d="M3823 2323 c-15 -3 -23 -12 -23 -25 0 -11 3 -18 8 -16 48 24 62 32
62 40 0 8 -8 8 -47 1z"/>
<path d="M3610 2304 c-25 -7 -59 -13 -76 -13 -49 -1 -97 -13 -85 -21 6 -3 42
-2 79 3 37 6 86 9 110 8 24 -1 53 4 65 10 21 12 21 12 2 20 -26 10 -41 9 -95
-7z"/>
<path d="M3337 2268 c21 -7 40 -7 60 0 25 9 21 10 -32 10 -55 0 -57 -1 -28
-10z"/>
<path d="M2858 2263 c6 -2 18 -2 25 0 6 3 1 5 -13 5 -14 0 -19 -2 -12 -5z"/>
<path d="M2770 2241 c0 -5 7 -11 15 -15 8 -3 15 -1 15 3 0 5 -7 11 -15 15 -8
3 -15 1 -15 -3z"/>
<path d="M3000 2166 c0 -20 6 -24 38 -28 21 -1 46 -2 55 0 29 6 8 22 -28 22
-20 0 -35 6 -39 15 -9 23 -26 18 -26 -9z"/>
<path d="M2685 2121 c-19 -9 -19 -9 4 -18 19 -7 21 -12 11 -18 -9 -5 -15 -4
-18 3 -2 7 -11 12 -20 12 -8 0 -30 5 -48 12 -26 9 -45 9 -88 -2 -41 -10 -65
-11 -90 -3 -19 6 -40 7 -47 2 -10 -6 -5 -9 15 -9 16 0 37 -7 46 -15 10 -9 37
-16 66 -16 27 -1 54 -5 60 -10 6 -5 33 -8 60 -7 67 2 194 -13 194 -23 0 -5 9
-9 20 -9 33 0 23 18 -17 31 -62 19 -70 31 -32 44 19 7 34 16 34 21 0 12 -124
16 -150 5z"/>
<path d="M4420 2085 c0 -2 10 -10 23 -16 20 -11 21 -11 8 4 -13 16 -31 23 -31
12z"/>
<path d="M2971 2028 c-14 -5 -31 -6 -38 -4 -7 3 -13 1 -13 -4 0 -4 15 -11 33
-15 17 -4 40 -9 50 -11 12 -4 17 0 17 14 0 25 -18 32 -49 20z"/>
<path d="M5939 1853 c6 -10 21 -31 36 -48 l25 -30 25 30 c14 17 25 33 25 36 0
7 -79 29 -105 29 -12 0 -13 -4 -6 -17z m89 -18 c6 -6 -18 -35 -28 -35 -4 0
-16 12 -25 26 l-17 27 33 -7 c18 -3 35 -8 37 -11z"/>
<path d="M5789 1749 c-14 -5 -65 -59 -113 -120 -94 -118 -103 -147 -44 -135
27 5 37 1 65 -26 18 -17 33 -35 33 -39 0 -3 -44 4 -97 17 l-98 23 -35 -33
c-19 -18 -53 -48 -75 -67 -91 -77 -135 -126 -129 -143 5 -13 0 -16 -24 -16
-33 0 -146 -70 -162 -100 -7 -14 -6 -23 6 -34 9 -9 19 -14 24 -11 14 9 114
-127 116 -159 5 -63 35 -58 125 23 45 40 52 52 56 93 5 39 1 55 -21 92 -15 25
-43 57 -64 71 -30 21 -33 25 -15 25 13 0 42 -23 77 -62 45 -50 55 -67 53 -92
-4 -56 29 -45 123 40 47 42 87 80 88 85 6 16 -59 89 -79 89 -28 0 -34 -26 -14
-56 16 -25 16 -26 -22 -59 l-38 -33 -23 21 c-28 26 -24 41 14 42 43 0 43 32 0
74 -38 37 -66 36 -66 -2 0 -33 -10 -40 -32 -20 -25 22 -23 28 16 58 32 25 36
25 58 11 42 -28 57 -2 33 57 -5 11 -3 17 7 17 19 0 138 -122 138 -142 0 -8 6
-21 14 -27 12 -10 23 -5 55 25 42 37 53 70 27 80 -8 3 -23 1 -34 -5 -16 -8
-25 -3 -57 29 -22 22 -35 40 -30 40 6 0 52 -10 104 -22 91 -22 93 -22 107 -3
8 10 14 22 14 26 0 4 -38 42 -85 84 -78 71 -100 105 -76 119 13 9 151 -105
151 -124 0 -27 25 -43 48 -31 29 16 102 129 102 159 0 14 -9 45 -21 69 -34 71
-135 117 -200 92z m142 -42 c16 -11 35 -35 44 -53 26 -54 19 -86 -31 -153 -48
-64 -64 -74 -64 -41 0 28 -153 150 -180 143 -31 -8 -24 11 23 69 65 80 132 92
208 35z m-255 -142 c-3 -8 34 -50 86 -100 115 -108 111 -117 -34 -85 -57 12
-114 24 -128 27 -20 4 -11 -9 45 -61 46 -44 72 -63 79 -56 12 12 36 13 36 3
-1 -14 -45 -61 -59 -65 -9 -2 -15 5 -15 17 -1 29 -149 168 -163 154 -21 -21
-34 1 -16 26 23 31 35 31 158 0 55 -14 104 -25 110 -25 5 0 -19 29 -55 65 -61
62 -65 64 -87 50 -37 -25 -39 3 -3 40 32 33 57 38 46 10z m-178 -205 c23 -31
28 -50 13 -50 -5 0 -14 7 -21 15 -7 8 -17 15 -22 15 -14 0 -88 -62 -88 -74 0
-6 12 -23 25 -39 22 -24 27 -26 45 -15 15 9 19 20 15 36 -10 42 40 16 70 -37
6 -11 3 -13 -15 -8 -26 7 -60 -8 -60 -26 1 -7 14 -27 30 -46 l29 -34 48 43
c26 24 50 45 52 46 2 2 -6 15 -18 30 -32 40 -13 50 25 13 19 -18 34 -36 34
-39 0 -10 -160 -150 -172 -150 -6 0 -8 10 -4 23 4 18 -2 33 -25 58 -17 19 -47
53 -66 76 -29 34 -41 41 -60 37 -13 -4 -23 -2 -23 4 0 10 150 151 161 152 3 0
15 -13 27 -30z m-166 -182 c63 -24 107 -138 75 -195 -14 -25 -118 -106 -125
-98 -3 3 -6 15 -7 28 -2 32 -114 177 -137 177 -29 0 -21 13 30 53 77 58 95 62
164 35z"/>
<path d="M5770 1680 c-16 -18 -30 -36 -30 -40 0 -5 37 -39 81 -76 l82 -68 29
34 c25 29 29 41 24 74 -7 56 -50 97 -110 103 -42 5 -48 3 -76 -27z m148 -25
c38 -41 41 -74 8 -112 l-24 -27 -71 58 c-39 32 -71 62 -71 66 0 5 14 20 32 35
41 35 81 28 126 -20z"/>
<path d="M5213 1139 c-18 -12 -33 -24 -33 -27 0 -5 95 -135 121 -166 4 -5 23
1 43 13 62 39 59 122 -6 176 -36 31 -81 32 -125 4z m121 -17 c29 -26 48 -72
42 -98 -6 -23 -42 -64 -57 -64 -9 0 -109 134 -109 146 0 5 12 17 28 27 30 19
66 15 96 -11z"/>
<path d="M5154 1696 c-7 -18 -6 -21 39 -101 34 -58 57 -80 57 -53 0 7 -8 27
-18 43 -10 17 -22 42 -25 58 -4 15 -14 27 -23 27 -10 0 -14 6 -11 15 4 8 2 17
-4 20 -5 4 -12 -1 -15 -9z"/>
<path d="M1217 1657 c-3 -8 -1 -20 4 -28 16 -26 9 -37 -57 -89 -60 -48 -67
-52 -89 -40 -29 15 -55 7 -55 -17 0 -17 141 -195 159 -201 5 -2 33 19 62 46
47 43 52 51 40 66 -18 21 -33 20 -66 -6 l-28 -22 -23 30 c-13 16 -24 32 -24
35 0 4 30 32 68 62 61 50 69 54 84 40 21 -19 52 -13 56 10 5 26 -78 126 -104
127 -12 0 -24 -6 -27 -13z m86 -57 c23 -30 33 -51 27 -55 -6 -4 -20 1 -30 10
-21 19 -16 22 -118 -60 -34 -27 -62 -54 -62 -60 0 -5 16 -28 34 -50 l34 -40
31 23 c32 23 51 28 51 13 0 -10 -70 -71 -82 -71 -14 0 -149 170 -142 181 4 7
14 3 28 -10 l22 -21 74 61 c98 79 96 77 82 91 -16 16 -16 49 1 42 6 -3 29 -27
50 -54z"/>
<path d="M5313 1506 c-13 -6 -25 -16 -28 -23 -5 -15 13 -61 32 -81 7 -8 10
-19 7 -25 -3 -7 12 8 35 32 23 25 41 54 41 65 0 15 -3 17 -8 8 -10 -16 -36 -7
-48 16 -7 14 -14 16 -31 8z"/>
<path d="M1406 1454 c-21 -20 -20 -23 6 -51 l22 -24 -67 -66 -66 -67 -26 24
c-20 19 -30 22 -42 14 -31 -19 -25 -34 43 -104 68 -71 88 -80 108 -48 8 14 5
23 -14 43 l-24 26 65 65 65 65 26 -21 c31 -24 54 -26 62 -4 8 20 3 28 -58 92
-65 68 -80 77 -100 56z m88 -66 c31 -34 56 -65 56 -70 0 -16 -30 -8 -40 12 -6
11 -16 20 -23 20 -7 0 -46 -34 -87 -75 l-74 -74 22 -24 c22 -23 29 -47 15 -47
-13 0 -123 114 -123 127 0 19 14 16 35 -7 10 -11 23 -20 29 -20 6 0 45 34 86
75 l74 75 -27 28 c-25 26 -27 42 -6 42 4 0 32 -28 63 -62z"/>
<path d="M1573 1254 c-36 -18 -58 -62 -48 -96 4 -13 20 -41 36 -62 32 -44 37
-71 14 -80 -41 -15 -95 46 -75 84 7 14 6 23 -6 34 -8 9 -19 16 -24 16 -9 0
-70 -67 -70 -77 0 -10 73 -87 99 -105 89 -61 201 36 143 123 -9 15 -25 38 -36
53 -31 44 -4 73 40 42 14 -10 19 -26 19 -58 0 -36 3 -43 22 -46 14 -2 29 7 47
31 14 19 26 37 26 41 0 15 -87 95 -113 105 -36 14 -36 14 -74 -5z m94 -23 c17
-11 34 -29 38 -40 3 -12 13 -21 21 -21 20 0 17 -20 -8 -47 -30 -32 -36 -29
-34 18 0 32 -5 45 -23 60 -30 24 -67 24 -81 0 -15 -29 -13 -34 26 -86 42 -55
46 -86 14 -121 -41 -43 -124 -23 -155 36 -9 17 -20 30 -25 30 -17 0 -11 23 12
47 31 33 39 29 32 -16 -6 -35 -3 -43 21 -65 30 -28 73 -34 93 -14 20 20 14 53
-18 93 -37 46 -45 76 -30 105 22 41 70 49 117 21z"/>
<path d="M1762 1123 c-5 -10 -8 -23 -6 -28 7 -19 -89 -149 -115 -155 -59 -14
-48 -57 24 -96 32 -17 36 -17 51 -2 12 12 14 20 5 36 -8 16 -7 25 7 43 19 22
19 22 50 3 18 -10 32 -21 32 -24 0 -17 -31 -45 -51 -45 -12 0 -27 -8 -33 -18
-9 -16 -5 -24 29 -53 22 -18 45 -34 51 -34 6 0 17 -7 24 -15 15 -18 203 -125
219 -125 15 0 62 96 55 114 -10 26 -34 27 -58 1 l-23 -25 -42 23 c-22 12 -41
24 -41 27 0 3 9 16 20 30 18 23 20 24 20 5 0 -12 5 -26 12 -33 22 -22 47 -12
72 30 20 34 26 39 32 25 10 -27 52 -21 66 9 11 23 13 24 24 9 10 -13 6 -30
-23 -94 -21 -48 -43 -81 -56 -86 -12 -6 -23 -20 -25 -32 -3 -19 8 -27 65 -53
80 -37 130 -40 178 -10 68 42 101 170 58 229 -23 30 -128 90 -160 91 -12 0
-26 6 -30 13 -8 13 -185 117 -200 117 -5 1 -24 14 -43 30 -19 17 -45 30 -57
30 -14 0 -23 6 -23 15 0 15 -66 65 -87 65 -7 0 -16 -8 -21 -17z m59 -20 c33
-20 40 -48 10 -38 -15 4 -26 -3 -45 -31 -14 -21 -24 -39 -23 -39 1 -1 23 -16
49 -33 l47 -32 27 35 c22 29 24 38 14 50 -20 24 -2 31 28 13 28 -17 45 -54 21
-46 -19 6 -143 -172 -130 -185 6 -6 11 -15 11 -19 0 -15 -23 -8 -57 18 -34 26
-36 49 -3 39 17 -5 35 13 64 62 4 7 -12 24 -40 44 l-47 32 -28 -34 c-29 -35
-37 -59 -19 -59 6 0 10 -7 10 -15 0 -20 -6 -19 -46 6 -36 22 -48 55 -16 45 13
-4 31 14 75 78 31 47 57 94 57 105 0 25 4 26 41 4z m49 -83 c10 -19 -1 -60
-16 -60 -14 0 -64 35 -64 45 0 36 63 47 80 15z m210 -86 c44 -25 82 -50 85
-55 9 -13 -25 -71 -38 -66 -7 3 -10 11 -8 18 2 8 5 21 8 29 2 10 -13 25 -46
43 -27 15 -52 27 -55 27 -3 0 -14 -17 -25 -39 l-20 -38 24 -13 c18 -10 28 -10
38 -2 24 20 27 1 6 -39 -22 -44 -39 -51 -39 -15 0 21 -16 36 -40 36 -9 0 -50
-62 -50 -76 0 -5 27 -23 59 -41 l58 -32 13 24 c12 23 40 35 40 18 0 -15 -40
-73 -50 -73 -6 0 -27 11 -48 24 -20 13 -61 35 -90 50 -53 27 -73 61 -29 51 19
-5 28 6 74 87 44 78 50 95 38 104 -8 6 -15 14 -15 18 0 16 37 2 110 -40z
m-122 13 c8 -10 0 -32 -33 -87 -45 -76 -60 -87 -78 -59 -7 12 1 30 37 79 25
35 46 68 46 72 0 12 16 9 28 -5z m111 -64 c17 -10 31 -24 31 -30 0 -18 -11
-16 -25 4 -11 15 -17 15 -39 5 -26 -12 -31 -7 -20 22 8 20 15 20 53 -1z m225
-59 c81 -38 107 -87 86 -165 -7 -26 -26 -56 -47 -76 -43 -41 -95 -44 -169 -9
-56 26 -76 46 -46 46 24 0 107 178 97 209 -9 29 11 27 79 -5z"/>
<path d="M2211 718 c-23 -51 -41 -98 -41 -104 0 -7 18 -19 40 -28 36 -14 45
-14 74 -2 60 25 94 110 65 162 -11 21 -74 64 -92 64 -2 0 -23 -42 -46 -92z
m88 47 c30 -15 41 -33 41 -68 0 -29 -34 -83 -60 -97 -24 -13 -79 -4 -86 14 -4
12 63 166 73 166 2 0 17 -7 32 -15z"/>
<path d="M4951 1017 c-68 -40 -83 -63 -57 -82 14 -11 24 -11 38 -4 11 6 21 9
23 7 1 -2 23 -37 49 -78 l46 -74 -22 -23 c-17 -18 -19 -25 -8 -38 7 -8 17 -15
24 -15 18 0 216 124 216 135 0 19 -70 115 -84 115 -28 0 -38 -27 -22 -59 9
-16 16 -34 16 -38 0 -9 -59 -47 -65 -41 -2 1 -24 36 -49 77 -46 74 -46 75 -27
95 15 16 17 25 10 39 -14 24 -26 22 -88 -16z m69 4 c0 -5 -7 -14 -15 -21 -8
-7 -15 -16 -15 -20 0 -13 102 -180 109 -180 4 0 28 13 54 30 l47 30 -20 32
c-23 39 -25 48 -7 48 13 0 57 -68 57 -88 0 -11 -173 -122 -190 -122 -17 0 -11
18 11 34 21 14 20 15 -33 105 -52 90 -54 91 -85 86 -46 -8 -41 7 15 44 47 31
72 39 72 22z"/>
<path d="M4788 933 c-49 -8 -97 -72 -99 -131 0 -25 -1 -24 -16 11 -9 21 -22
37 -32 37 -25 0 -112 -29 -136 -44 -29 -19 -55 -75 -55 -118 0 -51 44 -134 82
-158 61 -37 146 -21 201 38 24 25 27 33 18 50 -19 36 -12 42 24 20 68 -40 159
-17 190 48 30 63 10 159 -42 206 -20 18 -87 49 -100 47 -4 -1 -20 -4 -35 -6z
m114 -50 c41 -39 58 -75 58 -123 0 -48 -23 -93 -56 -111 -34 -18 -110 -6 -141
22 -75 70 -69 205 11 240 37 15 96 3 128 -28z m-246 -91 c7 -33 -9 -46 -20
-17 -7 19 -58 19 -96 0 -34 -18 -53 -70 -40 -113 12 -45 38 -89 55 -96 31 -11
87 -6 116 11 32 19 36 39 15 68 -12 17 -17 18 -41 7 -19 -9 -31 -10 -38 -3 -7
7 5 17 37 31 59 25 80 26 72 4 -4 -9 -1 -32 6 -50 10 -29 9 -36 -8 -55 -44
-49 -121 -64 -174 -33 -55 33 -87 146 -58 208 12 27 80 66 116 66 11 0 24 5
28 11 9 16 23 -1 30 -39z m-26 -37 c16 -19 25 -19 44 0 13 13 15 13 21 -6 9
-26 2 -32 -57 -54 -52 -19 -67 -41 -43 -64 12 -13 21 -13 46 -4 25 10 31 9 36
-4 12 -32 -61 -63 -103 -44 -28 12 -57 71 -57 114 -1 57 80 101 113 62z"/>
<path d="M4767 870 c-22 -18 -27 -29 -27 -65 0 -88 37 -135 107 -135 65 0 87
27 80 98 -5 43 -12 62 -34 84 -39 39 -90 46 -126 18z m111 -29 c45 -46 50
-101 14 -143 -32 -38 -101 -6 -129 59 -36 88 49 150 115 84z"/>
<path d="M2731 774 l-63 -66 -69 27 c-38 15 -73 25 -79 23 -6 -2 8 -34 30 -72
22 -37 40 -71 40 -75 0 -3 -27 -35 -59 -70 -33 -36 -58 -68 -55 -72 2 -4 45 4
95 17 50 14 92 24 94 22 1 -2 24 -38 50 -80 25 -43 50 -78 55 -78 5 0 11 41
12 92 l3 92 75 19 c41 10 78 22 83 26 4 4 -25 21 -65 37 l-73 31 0 90 c0 50
-3 94 -6 97 -3 4 -34 -24 -68 -60z m69 -162 c22 -10 40 -20 40 -24 0 -3 -18
-9 -40 -13 -46 -8 -46 -8 -54 -59 -4 -22 -8 -42 -10 -44 -2 -2 -14 15 -27 38
-22 39 -25 41 -59 35 -19 -3 -44 -9 -55 -12 -18 -5 -19 -4 -5 13 8 10 23 29
33 41 19 22 19 22 -3 58 -12 20 -20 38 -18 41 3 2 21 -2 40 -10 35 -15 35 -15
74 25 l39 40 3 -56 c3 -56 4 -57 42 -73z"/>
<path d="M4115 723 l7 -99 -71 -32 c-40 -18 -69 -36 -66 -41 3 -5 36 -15 74
-22 38 -6 74 -15 80 -18 5 -3 13 -44 18 -90 4 -47 13 -86 18 -88 6 -2 29 35
52 81 l42 84 88 -19 c107 -22 103 -22 103 -6 0 6 -29 38 -64 69 l-64 57 39 75
c23 43 35 77 30 81 -6 3 -37 -8 -70 -25 -33 -16 -66 -30 -74 -30 -7 0 -35 23
-62 51 -86 88 -88 87 -80 -28z m138 -73 c6 1 23 7 37 15 31 18 45 19 33 3 -5
-7 -16 -28 -23 -46 -12 -31 -11 -35 16 -63 l29 -31 -50 4 c-49 3 -49 3 -75
-42 l-25 -45 -5 50 -5 50 -54 10 -53 10 44 22 45 21 -5 59 -5 58 42 -38 c22
-20 47 -37 54 -37z"/>
<path d="M3069 647 c-22 -15 -35 -32 -37 -50 -4 -37 22 -46 52 -18 26 25 58
27 76 6 20 -24 7 -40 -84 -102 -49 -32 -87 -66 -87 -75 -1 -10 -2 -24 -3 -30
-1 -13 113 -36 182 -37 32 -1 33 0 30 37 l-3 37 -52 -3 c-29 -2 -53 -1 -53 1
0 3 26 24 59 47 55 39 81 72 81 106 0 31 -33 76 -65 90 -46 19 -56 18 -96 -9z
m116 -22 c28 -27 33 -70 11 -100 -8 -11 -43 -40 -80 -65 -36 -25 -66 -48 -66
-51 0 -10 88 -21 109 -14 22 7 33 -5 22 -24 -12 -19 -176 8 -176 29 0 14 34
42 128 107 37 26 47 38 47 61 0 15 -5 33 -12 40 -19 19 -73 14 -93 -8 -13 -15
-22 -17 -29 -10 -8 8 -3 18 17 36 38 32 90 32 122 -1z"/>
<path d="M3801 647 c-66 -33 -76 -123 -20 -180 26 -25 35 -29 69 -24 22 3 40
2 40 -2 0 -17 -42 -45 -78 -50 -31 -5 -37 -10 -37 -31 0 -22 5 -25 40 -28 50
-4 102 28 128 78 36 69 5 193 -57 231 -36 22 -52 23 -85 6z m84 -23 c31 -20
55 -83 55 -144 0 -43 -5 -56 -33 -87 -27 -29 -41 -36 -73 -37 -52 -1 -59 17
-10 25 25 4 48 16 63 33 38 45 45 110 8 72 -26 -25 -62 -30 -91 -12 -34 23
-48 57 -40 100 11 59 70 84 121 50z"/>
<path d="M3800 591 c-23 -44 1 -101 42 -101 18 0 58 41 58 61 0 50 -77 81
-100 40z m74 -23 c15 -25 -4 -53 -35 -53 -25 0 -37 30 -25 61 8 20 46 14 60
-8z"/>
<path d="M3314 626 c-73 -53 -76 -257 -5 -296 40 -21 87 -12 115 21 14 17 28
40 30 52 20 98 13 164 -22 207 -23 28 -89 37 -118 16z m85 -11 c47 -24 65
-111 40 -198 -15 -55 -42 -79 -86 -75 -57 5 -78 42 -77 133 2 97 25 137 92
154 2 1 16 -6 31 -14z"/>
<path d="M3332 575 c-42 -54 -40 -173 4 -202 21 -13 27 -13 41 -2 52 44 58
188 9 221 -19 13 -34 9 -54 -17z m58 -14 c16 -30 12 -133 -6 -159 -36 -52 -68
-10 -62 83 4 63 19 95 44 95 7 0 18 -9 24 -19z"/>
<path d="M3570 621 c-60 -21 -70 -29 -70 -52 0 -19 8 -23 48 -19 21 1 22 -2
22 -84 0 -76 -2 -86 -18 -86 -29 0 -54 -23 -46 -43 5 -14 20 -17 93 -17 93 0
115 7 109 36 -2 13 -13 20 -34 22 -29 3 -32 7 -38 49 -3 25 -6 81 -6 124 0 43
-3 80 -7 82 -5 2 -28 -3 -53 -12z m43 -83 c4 -46 7 -102 7 -125 0 -40 2 -42
32 -45 17 -2 33 -9 36 -15 3 -10 -18 -13 -82 -13 -51 0 -86 4 -86 10 0 6 16
10 35 10 l35 0 0 104 c0 58 -4 108 -10 111 -5 3 -19 1 -31 -5 -15 -9 -24 -9
-32 -1 -7 7 3 16 34 30 24 12 47 21 50 21 3 0 9 -37 12 -82z"/>
</g>
</svg>
